<svg width="18" height="14" viewBox="0 0 20 16" fill="none" xmlns="http://www.w3.org/2000/svg">
<path d="M17 5.26675e-06C15.513 0.00300527 14.516 1.10502 14.406 1.18702C13.817 1.63002 13.177 2.03701 12.5 2.37501C11.078 3.08601 9.536 3.52501 8 3.78101C7.462 3.87101 6.97601 3.937 6.53101 3.969C6.27101 3.987 6.085 4.00001 6 4.00001H3.93799C1.73299 4.00001 0 5.78601 0 8.00001C0 10.209 1.791 12 4 12V13C4 14.657 5.343 16 7 16C8.657 16 10 14.657 10 13L10.006 12.659C10.848 12.901 11.71 13.229 12.5 13.625C13.173 13.962 13.82 14.373 14.406 14.812C14.516 14.895 15.63 16.009 17 16C18.642 15.989 20 14.724 20 13.125V2.87501C20 1.27601 18.662 -0.00299473 17 5.26675e-06ZM17 2.00001C17.567 2.00001 18 2.41201 18 2.87501V13.125C18 13.588 17.567 14 17 14C16.433 14 16 13.588 16 13.125C16 10.597 16 5.40301 16 2.87501C16 2.41201 16.433 2.00001 17 2.00001ZM14 3.82102C14 6.33602 13.991 9.639 13.991 12.154C13.785 12.039 13.619 11.95 13.406 11.844C11.789 11.033 10.064 10.506 8.34399 10.219C7.30799 10.046 6.486 10 6 10V6.00001C6.486 6.00001 7.30899 5.95401 8.34399 5.78101C10.063 5.49501 11.79 4.96401 13.406 4.15601C13.62 4.04901 13.793 3.93702 14 3.82102ZM3.93799 6.00001H4V10C2.895 10 2 9.10501 2 8.00001C2 6.87901 2.84899 6.00001 3.93799 6.00001ZM6 12C6.085 12 6.27101 12.013 6.53101 12.031C6.97601 12.063 7.462 12.129 8 12.219V13C8 13.552 7.552 14 7 14C6.448 14 6 13.552 6 13V12Z" fill="#7A7A7A"/>
</svg>
