<svg width="20" height="20" viewBox="0 0 24 24" fill="none" xmlns="http://www.w3.org/2000/svg">
<path d="M12 8.99999C11.4067 8.99999 10.8266 9.17593 10.3333 9.50558C9.83994 9.83522 9.45542 10.3038 9.22836 10.8519C9.0013 11.4001 8.94188 12.0033 9.05764 12.5853C9.1734 13.1672 9.45912 13.7017 9.87868 14.1213C10.2982 14.5409 10.8328 14.8266 11.4147 14.9423C11.9967 15.0581 12.5999 14.9987 13.148 14.7716C13.6962 14.5446 14.1648 14.16 14.4944 13.6667C14.824 13.1734 15 12.5933 15 12C15 11.2043 14.6839 10.4413 14.1213 9.87867C13.5587 9.31606 12.7956 8.99999 12 8.99999ZM12 13C11.8022 13 11.6089 12.9413 11.4444 12.8315C11.28 12.7216 11.1518 12.5654 11.0761 12.3827C11.0004 12.1999 10.9806 11.9989 11.0192 11.8049C11.0578 11.6109 11.153 11.4327 11.2929 11.2929C11.4327 11.153 11.6109 11.0578 11.8049 11.0192C11.9989 10.9806 12.2 11.0004 12.3827 11.0761C12.5654 11.1518 12.7216 11.28 12.8315 11.4444C12.9413 11.6089 13 11.8022 13 12C13 12.2652 12.8946 12.5196 12.7071 12.7071C12.5196 12.8946 12.2652 13 12 13ZM20.81 12.81C20.6469 12.6251 20.5579 12.3865 20.56 12.14V11.86C20.5579 11.6135 20.6469 11.3749 20.81 11.19L21.45 10.47C21.9405 9.91938 22.2111 9.2074 22.21 8.46999C22.2052 7.94427 22.0676 7.4283 21.81 6.96999L21.25 5.96999C20.9865 5.51365 20.6075 5.13475 20.1511 4.87143C19.6947 4.60811 19.1769 4.46965 18.65 4.46999C18.4485 4.47012 18.2475 4.49022 18.05 4.52999L17.11 4.71999H16.9C16.7285 4.71733 16.5603 4.67269 16.41 4.58999L16.16 4.43999C15.9665 4.34558 15.8087 4.19126 15.71 3.99999L15.4 3.08999C15.1925 2.50322 14.8077 1.99549 14.2989 1.63715C13.7901 1.27881 13.1824 1.08759 12.56 1.08999H11.44C10.8224 1.08464 10.2183 1.27001 9.70999 1.6208C9.20171 1.97158 8.81407 2.47069 8.6 3.04999L8.29 3.99999C8.21239 4.23223 8.05228 4.42793 7.84 4.54999L7.6 4.69999C7.4456 4.78135 7.27447 4.82585 7.1 4.82999H6.9L6 4.57999C5.80247 4.54022 5.60149 4.52012 5.4 4.51999C4.86658 4.50875 4.33982 4.63997 3.87401 4.90012C3.40821 5.16027 3.0202 5.53994 2.75 5.99999L2.19 6.99999C1.87613 7.54589 1.74201 8.17672 1.80662 8.8031C1.87123 9.42948 2.13131 10.0196 2.55 10.49L3.19 11.21C3.35307 11.3949 3.4421 11.6335 3.44 11.88V12.16C3.4421 12.4065 3.35307 12.6451 3.19 12.83L2.55 13.55C2.05947 14.1006 1.78891 14.8126 1.79 15.55C1.79482 16.0757 1.93241 16.5917 2.19 17.05L2.75 18.05C3.01346 18.5063 3.39248 18.8852 3.84891 19.1485C4.30533 19.4119 4.82306 19.5503 5.35 19.55C5.55149 19.5499 5.75247 19.5298 5.95 19.49L6.89 19.3H7.09C7.2615 19.3026 7.42973 19.3473 7.58 19.43L7.83 19.58C8.04228 19.702 8.20239 19.8977 8.28 20.13L8.6 21C8.80745 21.5868 9.19225 22.0945 9.7011 22.4528C10.2099 22.8112 10.8176 23.0024 11.44 23H12.56C13.1824 23.0024 13.7901 22.8112 14.2989 22.4528C14.8077 22.0945 15.1925 21.5868 15.4 21L15.71 20.09C15.7876 19.8577 15.9477 19.662 16.16 19.54L16.4 19.39C16.5544 19.3086 16.7255 19.2641 16.9 19.26H17.1L18.05 19.45C18.2475 19.4898 18.4485 19.5099 18.65 19.51C19.1769 19.5103 19.6947 19.3719 20.1511 19.1085C20.6075 18.8452 20.9865 18.4663 21.25 18.01L21.81 17.01C22.0676 16.5517 22.2052 16.0357 22.21 15.51C22.2111 14.7726 21.9405 14.0606 21.45 13.51L20.81 12.81ZM19.32 14.13L19.96 14.85C20.1231 15.0349 20.2121 15.2735 20.21 15.52C20.2082 15.6961 20.1599 15.8686 20.07 16.02L19.51 17.02C19.4227 17.1711 19.2975 17.2968 19.1466 17.3845C18.9957 17.4722 18.8245 17.5189 18.65 17.52H18.45L17.51 17.33C16.7888 17.1805 16.0377 17.3015 15.4 17.67L15.16 17.81C14.5232 18.1762 14.0428 18.7633 13.81 19.46L13.51 20.38C13.4429 20.5786 13.3151 20.7511 13.1446 20.8731C12.9742 20.9952 12.7696 21.0605 12.56 21.06H11.44C11.2304 21.0605 11.0258 20.9952 10.8554 20.8731C10.6849 20.7511 10.5571 20.5786 10.49 20.38L10.19 19.46C9.95719 18.7633 9.47683 18.1762 8.84 17.81L8.59 17.67C8.13669 17.409 7.62304 17.2712 7.1 17.27C6.8952 17.2701 6.6909 17.2902 6.49 17.33L5.55 17.52H5.35C5.17379 17.5207 5.00052 17.4748 4.84774 17.387C4.69496 17.2992 4.5681 17.1726 4.48 17.02L3.93 16.02C3.84012 15.8686 3.79183 15.6961 3.79 15.52C3.77671 15.2786 3.85131 15.0406 4 14.85L4.64 14.13C5.13053 13.5794 5.40108 12.8674 5.4 12.13V11.85C5.40108 11.1126 5.13053 10.4006 4.64 9.84999L4 9.14999C3.83693 8.9651 3.7479 8.7265 3.75 8.47999C3.76727 8.30706 3.82931 8.14163 3.93 7.99999L4.49 6.99999C4.57725 6.84885 4.70254 6.72318 4.85341 6.63546C5.00428 6.54775 5.17548 6.50104 5.35 6.49999H5.55L6.49 6.68999C6.69083 6.73022 6.89517 6.75032 7.1 6.74999C7.62304 6.74882 8.13669 6.61093 8.59 6.34999L8.84 6.20999C9.46936 5.8536 9.94878 5.28184 10.19 4.59999L10.49 3.67999C10.5571 3.48137 10.6849 3.30885 10.8554 3.18683C11.0258 3.06481 11.2304 2.99945 11.44 2.99999H12.56C12.7696 2.99945 12.9742 3.06481 13.1446 3.18683C13.3151 3.30885 13.4429 3.48137 13.51 3.67999L13.81 4.59999C14.0428 5.29672 14.5232 5.88382 15.16 6.24999L15.41 6.38999C15.8633 6.65093 16.377 6.78882 16.9 6.78999C17.1048 6.79032 17.3092 6.77022 17.51 6.72999L18.45 6.53999H18.65C18.8262 6.53929 18.9995 6.58516 19.1523 6.67297C19.305 6.76077 19.4319 6.88738 19.52 7.03999L20.07 8.03999C20.1599 8.19142 20.2082 8.3639 20.21 8.53999C20.2121 8.7865 20.1231 9.0251 19.96 9.20999L19.32 9.92999C18.8295 10.4806 18.5589 11.1926 18.56 11.93V12.21C18.5589 12.9474 18.8295 13.6594 19.32 14.21" fill="#222221"/>
</svg>
