<svg width="20" height="20" viewBox="0 0 24 24" fill="none" xmlns="http://www.w3.org/2000/svg">
<path d="M12 6C11.2089 6 10.4355 6.2346 9.77772 6.67412C9.11993 7.11365 8.60724 7.73836 8.30449 8.46927C8.00174 9.20017 7.92252 10.0044 8.07686 10.7804C8.2312 11.5563 8.61217 12.269 9.17158 12.8284C9.73099 13.3878 10.4437 13.7688 11.2196 13.9231C11.9956 14.0775 12.7998 13.9983 13.5307 13.6955C14.2616 13.3928 14.8864 12.8801 15.3259 12.2223C15.7654 11.5645 16 10.7911 16 10C16 8.93913 15.5786 7.92172 14.8284 7.17157C14.0783 6.42143 13.0609 6 12 6ZM12 12C11.6044 12 11.2178 11.8827 10.8889 11.6629C10.56 11.4432 10.3036 11.1308 10.1522 10.7654C10.0009 10.3999 9.96126 9.99778 10.0384 9.60982C10.1156 9.22186 10.3061 8.86549 10.5858 8.58579C10.8655 8.30608 11.2219 8.1156 11.6098 8.03843C11.9978 7.96126 12.3999 8.00087 12.7654 8.15224C13.1308 8.30362 13.4432 8.55996 13.6629 8.88886C13.8827 9.21776 14 9.60444 14 10C14 10.5304 13.7893 11.0391 13.4142 11.4142C13.0391 11.7893 12.5304 12 12 12ZM12 2C10.0222 2 8.08879 2.58649 6.4443 3.6853C4.79981 4.78412 3.51809 6.3459 2.76121 8.17317C2.00433 10.0004 1.8063 12.0111 2.19215 13.9509C2.578 15.8907 3.53041 17.6725 4.92894 19.0711C6.32746 20.4696 8.10929 21.422 10.0491 21.8079C11.9889 22.1937 13.9996 21.9957 15.8268 21.2388C17.6541 20.4819 19.2159 19.2002 20.3147 17.5557C21.4135 15.9112 22 13.9778 22 12C22 10.6868 21.7413 9.38642 21.2388 8.17317C20.7363 6.95991 19.9997 5.85752 19.0711 4.92893C18.1425 4.00035 17.0401 3.26375 15.8268 2.7612C14.6136 2.25866 13.3132 2 12 2ZM8 18.92V18C8 17.7348 8.10536 17.4804 8.2929 17.2929C8.48043 17.1054 8.73479 17 9 17H15C15.2652 17 15.5196 17.1054 15.7071 17.2929C15.8946 17.4804 16 17.7348 16 18V18.92C14.7855 19.6271 13.4053 19.9996 12 19.9996C10.5947 19.9996 9.21448 19.6271 8 18.92ZM17.93 17.35C17.782 16.6833 17.411 16.087 16.8783 15.6597C16.3455 15.2324 15.6829 14.9997 15 15H9C8.31707 14.9997 7.65448 15.2324 7.12174 15.6597C6.58899 16.087 6.21797 16.6833 6.07 17.35C5.03059 16.2022 4.34665 14.7773 4.10117 13.2484C3.85569 11.7195 4.05921 10.1521 4.68705 8.73661C5.31489 7.32108 6.34005 6.11819 7.63815 5.27388C8.93625 4.42958 10.4515 3.98017 12 3.98017C13.5485 3.98017 15.0638 4.42958 16.3619 5.27388C17.66 6.11819 18.6851 7.32108 19.313 8.73661C19.9408 10.1521 20.1443 11.7195 19.8988 13.2484C19.6534 14.7773 18.9694 16.2022 17.93 17.35Z" fill="#222221"/>
</svg>
