<svg width="20" height="20" viewBox="0 0 20 20" fill="none" xmlns="http://www.w3.org/2000/svg">
<g filter="url(#filter0_i_2_178)">
<path d="M9.35408 11.083L12.7117 7.71545C12.712 7.71512 12.7123 7.7148 12.7126 7.71448C12.7893 7.63915 12.8925 7.59692 13 7.59692C13.1071 7.59692 13.2099 7.63881 13.2865 7.71357C13.3612 7.79013 13.4031 7.89292 13.4031 8C13.4031 8.10758 13.3608 8.21084 13.2854 8.28751C13.2851 8.28779 13.2848 8.28807 13.2846 8.28835L9.28836 12.2846C9.28808 12.2848 9.2878 12.2851 9.28751 12.2854C9.21084 12.3608 9.10759 12.4031 9 12.4031C8.89242 12.4031 8.78917 12.3608 8.7125 12.2854C8.71221 12.2851 8.71193 12.2848 8.71165 12.2846L6.73556 10.3085C6.68015 10.2325 6.65237 10.1397 6.65727 10.0454C6.66253 9.94419 6.70511 9.84848 6.7768 9.7768C6.84849 9.70511 6.94419 9.66252 7.04543 9.65726C7.13946 9.65237 7.23207 9.68 7.30786 9.73512L8.64516 11.0823L8.99923 11.4389L9.35408 11.083ZM19.5 10C19.5 11.8789 18.9428 13.7156 17.899 15.2779C16.8551 16.8402 15.3714 18.0578 13.6355 18.7769C11.8996 19.4959 9.98947 19.684 8.14665 19.3175C6.30383 18.9509 4.61109 18.0461 3.28249 16.7175C1.95389 15.3889 1.0491 13.6962 0.682544 11.8534C0.315985 10.0105 0.504116 8.1004 1.22315 6.36451C1.94218 4.62861 3.15982 3.14491 4.72209 2.10104C6.28435 1.05717 8.12108 0.5 10 0.5C11.2476 0.5 12.4829 0.745725 13.6355 1.22314C14.7881 1.70056 15.8354 2.40033 16.7175 3.28249C17.5997 4.16464 18.2994 5.21191 18.7769 6.36451C19.2543 7.5171 19.5 8.75244 19.5 10ZM18.5 10C18.5 8.31886 18.0015 6.67547 17.0675 5.27765C16.1335 3.87984 14.806 2.79037 13.2528 2.14702C11.6996 1.50368 9.99058 1.33535 8.34174 1.66333C6.6929 1.9913 5.17834 2.80085 3.9896 3.98959C2.80085 5.17834 1.9913 6.69289 1.66333 8.34173C1.33536 9.99057 1.50368 11.6996 2.14703 13.2528C2.79037 14.806 3.87984 16.1335 5.27766 17.0675C6.67548 18.0015 8.31886 18.5 10 18.5C12.2543 18.5 14.4164 17.6045 16.0104 16.0104C17.6045 14.4163 18.5 12.2543 18.5 10Z" stroke="#5BAF33"/>
</g>
<defs>
<filter id="filter0_i_2_178" x="0" y="0" width="20" height="24" filterUnits="userSpaceOnUse" color-interpolation-filters="sRGB">
<feFlood flood-opacity="0" result="BackgroundImageFix"/>
<feBlend mode="normal" in="SourceGraphic" in2="BackgroundImageFix" result="shape"/>
<feColorMatrix in="SourceAlpha" type="matrix" values="0 0 0 0 0 0 0 0 0 0 0 0 0 0 0 0 0 0 127 0" result="hardAlpha"/>
<feOffset dy="4"/>
<feGaussianBlur stdDeviation="2"/>
<feComposite in2="hardAlpha" operator="arithmetic" k2="-1" k3="1"/>
<feColorMatrix type="matrix" values="0 0 0 0 0 0 0 0 0 0 0 0 0 0 0 0 0 0 0.25 0"/>
<feBlend mode="normal" in2="shape" result="effect1_innerShadow_2_178"/>
</filter>
</defs>
</svg>
