<svg width="1024" height="1024" viewBox="0 0 1024 1024" fill="none" xmlns="http://www.w3.org/2000/svg">
<g clip-path="url(#clip0_17_984)">
<path d="M718.05 427.7L717.96 504.67C717.96 505.097 718.17 505.307 718.59 505.3L736.01 505.13C736.277 505.127 736.542 505.185 736.783 505.299C737.024 505.413 737.235 505.581 737.4 505.79C740.653 509.917 743.837 514.083 746.95 518.29C747.85 519.5 748.76 519.76 750.01 520.42C750.937 520.907 751.147 523.3 750.64 527.6C750.6 527.92 750.743 528.08 751.07 528.08L757.03 528.11C757.323 528.11 757.5 527.967 757.56 527.68L766.13 485.12C766.237 484.607 766.23 484.097 766.11 483.59C761.823 465.163 758.363 446.53 755.73 427.69C755.577 426.563 755.567 425.53 755.7 424.59C755.753 424.27 755.943 424.11 756.27 424.11L760.52 424.1L776.22 424.09C776.322 424.09 776.424 424.069 776.518 424.029C776.612 423.988 776.696 423.928 776.766 423.853C776.835 423.777 776.888 423.688 776.922 423.592C776.955 423.495 776.968 423.392 776.96 423.29C775.527 404.383 773.843 385.147 771.91 365.58C771.891 365.381 771.912 365.181 771.973 364.991C772.034 364.8 772.133 364.625 772.264 364.474C772.395 364.323 772.555 364.201 772.735 364.114C772.915 364.028 773.111 363.979 773.31 363.97L780.94 363.61C781.151 363.6 781.359 363.663 781.527 363.789C781.696 363.915 781.813 364.096 781.86 364.3C782.247 365.947 782.54 367.91 782.74 370.19C784.34 388.11 785.99 406.017 787.69 423.91C787.71 424.063 787.797 424.14 787.95 424.14L793.61 424.15C793.73 424.15 793.787 424.09 793.78 423.97C792.987 407.23 792.3 390.58 791.72 374.02C791.673 372.547 792.333 371.58 793.7 371.12C796.29 370.24 797.29 371.29 797.8 373.45C801.613 389.69 805.533 406.303 809.56 423.29C809.611 423.501 809.732 423.688 809.902 423.822C810.073 423.956 810.283 424.03 810.5 424.03L837.34 424.05C837.973 424.05 838.3 424.363 838.32 424.99C838.327 425.31 838.297 425.727 838.23 426.24C836.183 441.693 833.743 456.71 830.91 471.29L827.86 484.57C827.687 485.31 827.67 486.053 827.81 486.8L835.48 527.47C835.54 527.79 835.733 527.957 836.06 527.97L839.97 528.09L893.7 527.95C893.854 527.95 894.001 528.011 894.11 528.12C894.219 528.229 894.28 528.376 894.28 528.53L894.3 550.45C894.3 550.583 894.247 550.71 894.154 550.804C894.06 550.897 893.933 550.95 893.8 550.95L751.69 551.01C751.303 551.01 751.15 551.2 751.23 551.58L794.05 759.45C794.143 759.91 794.423 760.137 794.89 760.13C812.14 759.79 830.19 760.43 846 765.08C856.28 768.11 863.67 773.26 864.83 785.1C865.21 788.973 865.327 792.9 865.18 796.88C865.167 797.287 865.363 797.483 865.77 797.47L873.74 797.27C873.835 797.267 873.929 797.284 874.018 797.319C874.106 797.354 874.187 797.407 874.255 797.474C874.323 797.541 874.377 797.621 874.414 797.71C874.451 797.799 874.47 797.894 874.47 797.99V927.56C874.47 927.783 874.558 927.997 874.716 928.154C874.874 928.312 875.087 928.4 875.31 928.4L961.3 928.41C961.382 928.41 961.464 928.427 961.539 928.459C961.615 928.492 961.683 928.54 961.739 928.6C961.795 928.66 961.839 928.731 961.866 928.808C961.894 928.886 961.906 928.968 961.9 929.05L961.88 929.4C961.875 929.475 961.843 929.546 961.79 929.6C961.736 929.653 961.665 929.685 961.59 929.69C959.65 929.843 957.733 929.917 955.84 929.91C660.447 929.903 364.373 929.893 67.62 929.88C67.3134 929.88 67.1633 929.727 67.17 929.42V929.17C67.1833 928.663 67.4433 928.41 67.95 928.41L155.68 928.44C155.842 928.44 155.997 928.375 156.111 928.258C156.226 928.142 156.29 927.985 156.29 927.82L156.31 551.25C156.31 550.877 156.123 550.69 155.75 550.69L111.32 550.74C111.047 550.74 110.91 550.603 110.91 550.33L110.94 528.74C110.94 528.624 110.963 528.508 111.008 528.401C111.053 528.294 111.119 528.196 111.201 528.114C111.284 528.032 111.382 527.968 111.49 527.924C111.598 527.88 111.714 527.859 111.83 527.86L119.42 527.96L176.17 527.94C177.21 527.94 177.267 527.71 176.34 527.25C156.66 517.45 150.94 494.42 155.26 474.24C157.427 464.14 162.09 455.61 169.25 448.65C175.677 442.837 182.87 438.333 190.83 435.14C191.19 434.993 191.3 434.74 191.16 434.38C190.38 432.293 190.627 430.36 191.9 428.58C192.133 428.253 192.05 428.063 191.65 428.01C185.057 427.183 178.96 424.81 173.36 420.89C168.6 417.063 164.963 412.21 162.45 406.33C156.74 392.98 157.86 378.15 162.7 364.73C164.313 360.243 166.02 355.773 167.82 351.32C171.587 342.02 172.727 332.323 171.24 322.23C171.193 321.89 171 321.7 170.66 321.66C154.36 319.5 146.27 303.78 149.24 288.54C151.11 278.59 158.07 270.85 169.04 272.99C185.22 276.13 194.72 295.31 200.26 309.07C200.453 309.537 200.613 309.527 200.74 309.04C203.03 300.18 205.38 291.13 210.09 283.56C225.17 259.34 247.4 280.13 250.67 298.7C252.44 308.77 243.76 316.66 234.49 319.08C234.157 319.167 233.98 319.38 233.96 319.72C233.56 325.987 233.467 331.73 233.68 336.95C234.39 354.32 243.01 369.85 242.3 387.55C241.68 402.75 234.01 417.43 220.09 424.17C216.203 426.05 211.647 427.333 206.42 428.02C206 428.08 205.83 428.317 205.91 428.73C206.463 431.437 206.64 433.987 206.44 436.38C206.419 436.601 206.466 436.825 206.574 437.021C206.683 437.217 206.849 437.377 207.05 437.48C208.163 438.06 209.183 438.867 210.11 439.9C215.397 445.773 219.587 452.643 222.68 460.51C228.187 475.143 228.613 490.227 223.96 505.76C221.1 515.307 215.46 522.48 207.04 527.28C206.067 527.833 206.143 528.11 207.27 528.11L233.73 528.03C234.183 528.03 234.29 527.837 234.05 527.45C227.85 517.44 230.16 502.09 239.41 494.09C240.23 493.383 242.493 492.843 246.2 492.47L249.09 492.26C249.45 492.233 249.627 492.04 249.62 491.68L249.47 479.01L249.36 460.51L299.26 460.42C299.627 460.42 299.803 460.237 299.79 459.87C299.783 459.517 299.607 459.137 299.26 458.73L286.77 409.46C285.883 405.873 288.183 403.787 293.67 403.2C295.33 403.03 296.52 403.69 296.89 405.28C300.07 418.64 303.26 431.9 306.46 445.06C307.6 449.72 308.43 454.49 309.44 459.33C309.503 459.626 309.666 459.891 309.901 460.079C310.137 460.267 310.43 460.366 310.73 460.36C311.67 460.347 312.077 460.103 311.95 459.63L319.34 422.28C320.76 417.04 322.083 412.037 323.31 407.27C323.59 406.177 324.31 405.237 325.47 404.45C327.77 402.89 331.17 404.02 333.54 405.04C336.313 406.307 337.333 408.627 336.6 412C336.353 413.133 335.567 415.59 334.24 419.37C330.83 428.69 328.04 438.48 324.46 447.26C322.713 451.567 320.957 455.88 319.19 460.2C319.083 460.453 319.17 460.58 319.45 460.58L333.78 460.59L343.5 460.56C343.84 460.56 344.04 460.727 344.1 461.06C344.4 462.667 344.367 464.223 344 465.73L280.28 465.82C280.147 465.82 280.08 465.883 280.08 466.01L280.13 469.93C280.13 470.037 280.18 470.09 280.28 470.09L345.95 469.76C347.43 470.92 347.707 472.13 346.78 473.39L345.69 472.22C345.457 471.96 345.167 471.83 344.82 471.83L280.4 471.96C280.253 471.96 280.177 472.033 280.17 472.18L280.05 477.45C280.05 477.57 280.107 477.63 280.22 477.63C300.993 477.743 322.96 477.64 346.12 477.32C346.807 477.307 347.153 476.963 347.16 476.29C347.16 475.943 347.32 475.837 347.64 475.97C348.513 476.343 349.207 476.77 349.72 477.25C351.407 478.817 351.103 479.503 348.81 479.31C345.583 479.037 342.04 479.193 338.18 479.78C338.013 479.807 337.93 479.903 337.93 480.07L337.86 488.39C337.86 488.53 337.927 488.577 338.06 488.53C349.033 484.797 362.517 482.3 378.51 481.04C402.157 479.173 424.157 478.86 444.51 480.1C452.85 480.927 460.94 482.45 468.78 484.67C468.947 484.717 469.04 484.657 469.06 484.49L469.89 475.87C469.894 475.831 469.89 475.791 469.878 475.754C469.866 475.716 469.846 475.682 469.819 475.652C469.793 475.623 469.761 475.6 469.725 475.584C469.688 475.568 469.649 475.56 469.61 475.56L459.78 475.63C431.773 475.323 408.513 475.233 390 475.36C385.527 475.393 381.677 474.91 378.45 473.91C368.857 468.81 364.05 461.343 364.03 451.51C363.923 399.943 363.947 353.44 364.1 312C364.17 295.09 372.5 283.05 390.54 281.59C397.12 281.063 404.54 281.057 412.8 281.57C413.16 281.597 413.397 281.44 413.51 281.1L415.13 276.22C416.15 275.193 417.19 274.687 418.25 274.7C434.67 274.86 451.253 274.87 468 274.73C470.13 274.71 471.39 278.69 471.53 280.49C471.55 280.72 471.655 280.934 471.823 281.089C471.992 281.245 472.212 281.331 472.44 281.33L504.3 281.3C504.7 281.3 504.9 281.1 504.9 280.7L505.04 154.24C505.04 153.933 505.197 153.78 505.51 153.78L716.96 153.8C717.074 153.8 717.183 153.845 717.264 153.926C717.345 154.007 717.39 154.116 717.39 154.23C717.41 163.983 717.427 173.763 717.44 183.57C717.45 188.56 717.84 193.48 718.13 198.39C718.163 198.957 718.453 199.317 719 199.47C751.453 208.53 784.68 217.847 818.68 227.42C821.04 228.08 823.443 228.25 825.89 227.93C830.76 227.3 832.98 233.68 829.04 236.65C828.935 236.729 828.854 236.834 828.806 236.954C828.759 237.074 828.746 237.205 828.77 237.33C830.17 244.64 829.69 251.52 827.33 258.49C825.94 262.59 823.9 268.02 824.77 272.22C825.357 275.04 826.02 277.89 826.76 280.77C828.107 286.037 828.357 291.367 827.51 296.76C826.117 305.62 823.993 314.19 821.14 322.47C821.065 322.69 820.918 322.878 820.722 323.005C820.527 323.132 820.293 323.19 820.06 323.17L819.73 323.14C818.817 323.053 818.497 322.573 818.77 321.7C821.64 312.7 824.06 303.57 825.24 294.45C825.9 289.323 825.437 284.143 823.85 278.91C823.157 276.617 822.653 274.337 822.34 272.07C821.31 264.75 825.9 257.71 826.77 250.54C827.23 246.727 827.25 242.817 826.83 238.81C826.797 238.512 826.675 238.231 826.481 238.003C826.287 237.775 826.029 237.61 825.74 237.53C823.927 237.017 822.62 235.947 821.82 234.32C821.672 234.024 821.419 233.792 821.11 233.67C819.623 233.083 818.073 232.56 816.46 232.1C785.207 223.133 752.79 213.95 719.21 204.55C718.503 204.35 718.15 204.62 718.15 205.36L718.05 427.7ZM506.36 155.78L506.37 280.78C506.37 281.12 506.537 281.29 506.87 281.29C547.43 281.43 586.633 281.397 624.48 281.19C633.407 281.143 639.49 281.627 642.73 282.64C653.337 285.967 659.743 293.45 661.95 305.09C661.981 305.259 662.071 305.412 662.204 305.521C662.338 305.631 662.506 305.691 662.68 305.69L712.78 305.77C712.987 305.77 713.09 305.67 713.09 305.47L713.13 203.69C713.13 203.197 712.893 202.88 712.42 202.74C703.447 200.053 694.1 197.353 684.38 194.64C681.57 193.86 679.64 194.91 677.04 195.55C676.894 195.585 676.766 195.674 676.681 195.8C676.597 195.925 676.56 196.079 676.58 196.23L681.3 230.45C681.311 230.543 681.299 230.637 681.263 230.723C681.227 230.809 681.17 230.884 681.096 230.942C681.023 230.999 680.936 231.037 680.844 231.05C680.751 231.064 680.657 231.054 680.57 231.02C660.197 223.207 640.04 215.8 620.1 208.8C619.693 208.653 619.48 208.367 619.46 207.94L619.15 201.55C619.131 201.062 619.299 200.586 619.62 200.22C632.867 185.327 646.417 170.7 660.27 156.34C660.362 156.244 660.424 156.123 660.448 155.992C660.471 155.861 660.456 155.726 660.404 155.603C660.352 155.481 660.265 155.377 660.154 155.303C660.043 155.23 659.913 155.19 659.78 155.19L506.97 155.17C506.89 155.17 506.811 155.186 506.737 155.216C506.663 155.247 506.595 155.292 506.539 155.349C506.482 155.405 506.437 155.473 506.406 155.547C506.376 155.621 506.36 155.7 506.36 155.78ZM661.39 156.08C661.983 157.22 662.723 158.24 663.61 159.14C666.26 161.85 668.33 165.93 671.56 167.9C671.867 168.087 672.153 168.06 672.42 167.82C674.73 165.72 677.55 162.17 681.13 163.14C682.663 163.56 684.16 164.117 685.62 164.81C698.83 171.06 707.77 180.91 715.88 193.51C716.173 193.963 716.31 193.92 716.29 193.38C715.917 181.293 715.817 168.827 715.99 155.98C715.991 155.874 715.972 155.769 715.932 155.671C715.892 155.573 715.834 155.483 715.759 155.408C715.685 155.333 715.596 155.273 715.498 155.232C715.401 155.191 715.296 155.17 715.19 155.17L661.93 155.2C661.27 155.2 661.09 155.493 661.39 156.08ZM682.17 187.68C682.377 188.633 682.96 189.243 683.92 189.51C694.073 192.363 704.26 195.257 714.48 198.19C714.581 198.218 714.687 198.217 714.787 198.186C714.887 198.155 714.975 198.095 715.042 198.015C715.109 197.934 715.151 197.836 715.163 197.733C715.175 197.629 715.156 197.524 715.11 197.43C708.59 184.563 699.25 174.79 687.09 168.11C684.757 166.823 682.48 165.9 680.26 165.34C679.873 165.247 679.503 165.29 679.15 165.47C677.09 166.503 675.313 167.783 673.82 169.31C673.513 169.623 673.423 169.99 673.55 170.41C674.817 174.757 675.393 179.217 675.28 183.79C675.267 184.39 675.56 184.653 676.16 184.58C678.5 184.29 681.59 185.06 682.17 187.68ZM678.48 229.09C679.287 229.517 679.623 229.28 679.49 228.38C678.15 218.973 676.777 208.943 675.37 198.29C674.84 194.31 673.07 190.63 673.54 186.59C674.09 181.77 673.77 170.48 668.79 167.72C668.137 167.353 667.843 167.543 667.91 168.29C669.83 188.297 671.987 207.363 674.38 225.49C674.513 226.497 675.027 227.24 675.92 227.72L678.48 229.09ZM163.94 277.99C167.327 290.157 169.437 298.24 170.27 302.24C171.47 307.973 172.54 313.54 173.48 318.94C173.518 319.154 173.633 319.346 173.802 319.482C173.971 319.618 174.183 319.688 174.4 319.68C182.753 319.413 190.833 317.34 198.64 313.46C198.94 313.313 199.033 313.083 198.92 312.77C195.76 303.643 191.34 295.16 185.66 287.32C183.36 284.147 180.89 281.657 178.25 279.85C173.977 276.543 169.26 274.897 164.1 274.91C164.029 274.909 163.959 274.924 163.895 274.953C163.83 274.982 163.773 275.024 163.726 275.077C163.68 275.131 163.645 275.193 163.625 275.261C163.605 275.329 163.6 275.4 163.61 275.47L163.94 277.99ZM224.99 275.02C210.66 277.41 204.47 301.42 202.6 313.11C202.571 313.28 202.594 313.455 202.667 313.612C202.74 313.769 202.86 313.901 203.01 313.99C210.59 318.5 221.37 319.25 230.76 317.94C230.933 317.918 231.093 317.834 231.209 317.704C231.324 317.573 231.389 317.405 231.39 317.23C231.457 304.483 230.477 292.797 228.45 282.17C228.07 280.17 227.54 278.16 226.86 276.14C226.735 275.762 226.477 275.441 226.134 275.235C225.791 275.03 225.385 274.954 224.99 275.02ZM244.88 289.33C241.693 283.177 236.89 278.663 230.47 275.79C230.043 275.597 229.88 275.727 229.98 276.18C232.747 288.48 234.037 301.73 233.85 315.93C233.849 316.012 233.867 316.094 233.902 316.168C233.937 316.242 233.989 316.307 234.053 316.358C234.117 316.408 234.192 316.443 234.271 316.459C234.35 316.475 234.432 316.472 234.51 316.45C240.46 314.84 246.61 310.19 248.1 303.86C249.23 299.12 247.12 293.65 244.88 289.33ZM160.28 276C152.57 280.97 149.96 290.26 151.39 299.1C152.743 307.447 156.923 313.497 163.93 317.25C166.03 318.37 168.16 319.027 170.32 319.22C170.402 319.229 170.485 319.218 170.563 319.19C170.641 319.161 170.711 319.115 170.768 319.055C170.825 318.995 170.867 318.923 170.892 318.844C170.916 318.765 170.923 318.682 170.91 318.6C168.96 304.45 164.83 290.22 160.98 276.26C160.961 276.191 160.926 276.127 160.877 276.074C160.828 276.021 160.767 275.981 160.699 275.955C160.631 275.93 160.558 275.921 160.485 275.929C160.412 275.936 160.342 275.961 160.28 276ZM417.42 313.32C415.907 312.847 414.587 312.707 413.46 312.9C413.367 312.916 413.271 312.911 413.18 312.887C413.088 312.862 413.004 312.818 412.931 312.757C412.859 312.696 412.801 312.62 412.761 312.534C412.721 312.448 412.7 312.355 412.7 312.26L412.63 284.44C412.63 284.033 412.423 283.823 412.01 283.81C405.497 283.59 398.853 283.59 392.08 283.81C374.93 284.37 366.39 296.27 366.44 312.48C366.56 356.32 366.567 397.32 366.46 435.48C366.46 435.635 366.491 435.787 366.55 435.93C366.609 436.073 366.697 436.202 366.806 436.311C366.916 436.42 367.046 436.506 367.189 436.564C367.332 436.622 367.486 436.651 367.64 436.65C413.533 436.59 461.57 436.567 511.75 436.58C547.443 436.587 581.807 436.593 614.84 436.6C618.29 436.61 621.87 436.3 625.35 436.36C636.29 436.527 647.57 436.647 659.19 436.72C659.296 436.721 659.401 436.701 659.499 436.661C659.597 436.621 659.687 436.562 659.762 436.486C659.837 436.411 659.897 436.321 659.938 436.222C659.979 436.123 660 436.017 660 435.91C659.967 398.39 659.96 360.17 659.98 321.25C659.98 310.21 660.36 301.91 654.4 293.53C649.36 286.45 640.58 283.55 631.99 283.57C577.637 283.637 523.007 283.69 468.1 283.73C467.747 283.73 467.573 283.907 467.58 284.26C467.693 300.38 467.697 316.32 467.59 332.08C467.563 335.14 466.113 336.66 463.24 336.64C448.367 336.54 433.5 336.533 418.64 336.62C418.476 336.623 418.318 336.56 418.198 336.447C418.079 336.333 418.008 336.176 418 336.01C417.987 335.59 418.163 335.277 418.53 335.07L464.27 334.81C464.63 334.81 464.907 334.657 465.1 334.35C465.58 333.577 465.82 332.757 465.82 331.89C465.8 318.097 465.827 301.943 465.9 283.43C465.913 281.41 466.09 279.32 466.43 277.16C466.443 277.069 466.436 276.975 466.411 276.887C466.385 276.799 466.34 276.717 466.281 276.648C466.221 276.578 466.147 276.523 466.064 276.485C465.981 276.448 465.891 276.429 465.8 276.43C452.28 276.543 438.397 276.593 424.15 276.58C421.2 276.58 419.03 276.39 418.42 279.49C417.9 282.117 417.67 285.203 417.73 288.75C417.883 296.937 417.78 305.127 417.42 313.32ZM667.11 528.13L678.93 527.91C679.343 527.903 679.54 527.693 679.52 527.28L679.25 521.57C679.233 521.237 679.344 520.91 679.562 520.655C679.779 520.401 680.086 520.238 680.42 520.2C681.087 520.12 681.717 519.68 682.31 518.88C685.597 514.48 689.03 510 692.61 505.44L706.26 505.32L712.86 505.27C713.007 505.267 713.147 505.207 713.25 505.103C713.352 504.998 713.41 504.857 713.41 504.71L713.2 428.15L713.3 307.98C713.3 307.763 713.214 307.554 713.06 307.4C712.906 307.246 712.697 307.16 712.48 307.16L662.73 307.13C662.627 307.13 662.527 307.171 662.454 307.244C662.381 307.317 662.34 307.417 662.34 307.52C662.433 355.327 662.42 403.07 662.3 450.75C662.28 461.42 655.89 472.12 645.27 474.68C643.17 475.187 638.763 475.427 632.05 475.4C610.023 475.3 586.687 475.287 562.04 475.36C561.773 475.36 561.657 475.493 561.69 475.76L566.84 512.74C566.927 513.387 567.293 513.667 567.94 513.58C570.49 513.24 573.85 513.12 576.13 514.64C580.25 517.4 584.753 520.37 589.64 523.55C591.067 524.483 591.823 525.84 591.91 527.62C591.93 527.987 592.12 528.167 592.48 528.16L625.25 528.11C625.375 528.11 625.495 528.063 625.586 527.977C625.677 527.892 625.732 527.775 625.74 527.65C626.53 516.39 636.36 512.87 646.01 514.86C651.01 515.89 655.37 519.64 655.9 524.87C655.993 525.743 656.12 526.593 656.28 527.42C656.353 527.793 656.58 527.983 656.96 527.99L667.11 528.13ZM196.92 392.56C195.713 392.28 194.84 391.487 194.3 390.18C191.027 382.287 191.983 375.033 197.17 368.42C197.377 368.167 197.483 367.877 197.49 367.55L199.37 316.24C199.373 316.179 199.359 316.118 199.331 316.065C199.302 316.011 199.259 315.965 199.207 315.934C199.155 315.902 199.095 315.885 199.034 315.884C198.973 315.884 198.913 315.899 198.86 315.93C191.69 319.87 182.86 321.8 174.33 321.79C174.238 321.79 174.147 321.808 174.063 321.845C173.979 321.882 173.903 321.936 173.841 322.004C173.779 322.072 173.731 322.152 173.702 322.239C173.673 322.326 173.662 322.418 173.67 322.51C174.65 331.83 174.43 340.47 171.17 349.11C169.31 354.037 167.36 359.123 165.32 364.37C154.97 390.99 162.26 424.18 196.28 426.12C196.7 426.147 196.913 425.95 196.92 425.53L197.27 393C197.27 392.898 197.236 392.799 197.172 392.719C197.109 392.639 197.02 392.583 196.92 392.56ZM226.56 341.87C228.44 338.623 229.607 336 230.06 334C230.887 330.353 231.3 325.903 231.3 320.65C231.3 320.29 231.12 320.09 230.76 320.05C230.46 320.017 230.193 320.123 229.96 320.37C223.6 321.177 217.487 320.95 211.62 319.69C208.81 319.09 206.15 317.76 203.4 316.81C202.813 316.61 202.637 316.797 202.87 317.37C207.977 329.903 211.71 342.58 214.07 355.4C214.143 355.787 214.34 355.867 214.66 355.64C220.167 351.86 224.133 347.27 226.56 341.87ZM200.37 365.23C204.05 362.317 207.68 359.813 211.26 357.72C211.455 357.606 211.61 357.434 211.703 357.228C211.797 357.022 211.823 356.792 211.78 356.57C209.49 344.53 206.24 334.18 202.44 323.1C201.947 321.653 201.67 321.693 201.61 323.22L199.99 365.04C199.987 365.085 199.997 365.131 200.02 365.17C200.042 365.21 200.076 365.242 200.117 365.262C200.157 365.282 200.203 365.29 200.248 365.284C200.293 365.279 200.336 365.26 200.37 365.23ZM229.17 343.01C227.863 344.857 226.71 346.527 225.71 348.02C222.85 352.32 219.393 355.713 215.34 358.2C214.713 358.587 214.473 359.14 214.62 359.86C217.28 372.753 218.223 385.473 217.45 398.02C216.97 405.84 215.25 414.35 210.36 420.94L205.44 425.66C204.94 426.133 205.027 426.293 205.7 426.14C210.5 425.02 215.44 423.97 219.86 421.59C237.99 411.8 243.1 390.43 238.3 371.13C235.79 361.04 232.37 350.64 231.32 340.14C231.193 338.86 230.887 338.817 230.4 340.01L229.17 343.01ZM200.04 426.17C201.047 426.163 201.903 425.833 202.61 425.18C204.657 423.293 206.497 421.453 208.13 419.66C210.51 417.03 212.24 412.94 213.07 409.38C216.79 393.4 215.32 376.04 212.36 360.43C212.347 360.358 212.316 360.29 212.27 360.233C212.224 360.176 212.163 360.132 212.095 360.105C212.027 360.078 211.953 360.069 211.881 360.079C211.808 360.088 211.739 360.116 211.68 360.16L201.14 367.73C200.513 368.183 200.187 368.797 200.16 369.57C199.6 388.683 199.353 407.34 199.42 425.54C199.42 425.707 199.485 425.867 199.602 425.986C199.718 426.104 199.876 426.17 200.04 426.17ZM779.85 366.95C779.847 366.733 779.758 366.526 779.602 366.374C779.446 366.222 779.236 366.139 779.019 366.142L774.959 366.199C774.851 366.2 774.745 366.223 774.646 366.265C774.547 366.308 774.458 366.37 774.383 366.447C774.307 366.524 774.248 366.615 774.208 366.715C774.169 366.815 774.149 366.922 774.151 367.03L774.17 368.43C774.173 368.647 774.262 368.855 774.418 369.006C774.574 369.158 774.784 369.241 775.001 369.238L779.061 369.182C779.169 369.18 779.275 369.157 779.374 369.115C779.473 369.072 779.562 369.01 779.637 368.933C779.713 368.856 779.772 368.765 779.811 368.665C779.851 368.565 779.871 368.458 779.87 368.35L779.85 366.95ZM774.58 372.18L774.56 372.46C774.546 372.608 774.588 372.756 774.679 372.873C774.771 372.99 774.903 373.068 775.05 373.09C776.697 373.35 778.36 373.183 780.04 372.59C780.22 372.523 780.357 372.41 780.45 372.25C780.53 372.11 780.537 371.983 780.47 371.87C780.343 371.663 780.163 371.573 779.93 371.6C778.35 371.807 776.607 371.963 774.7 372.07C774.627 372.07 774.587 372.107 774.58 372.18ZM197.4 389.6L197.6 372.92C197.6 372.886 197.586 372.852 197.562 372.828C197.538 372.804 197.504 372.79 197.47 372.79L197.43 372.78C196.78 372.773 196.147 373.642 195.669 375.194C195.191 376.747 194.907 378.857 194.88 381.06V381.38C194.867 382.472 194.917 383.554 195.028 384.564C195.139 385.574 195.308 386.492 195.526 387.267C195.745 388.041 196.007 388.657 196.3 389.078C196.592 389.499 196.908 389.717 197.23 389.72H197.27C197.303 389.72 197.334 389.708 197.359 389.686C197.383 389.663 197.397 389.633 197.4 389.6ZM795.54 375.5C795.447 375.113 795.25 374.82 794.95 374.62C794.871 374.569 794.78 374.54 794.686 374.536C794.592 374.531 794.499 374.551 794.415 374.593C794.331 374.635 794.26 374.699 794.208 374.777C794.156 374.856 794.126 374.946 794.12 375.04C794 376.673 793.98 378.243 794.06 379.75C794.88 394.49 795.573 409.09 796.14 423.55C796.153 423.93 796.35 424.12 796.73 424.12L806.8 424.13C806.862 424.13 806.922 424.117 806.978 424.09C807.033 424.063 807.082 424.023 807.12 423.974C807.159 423.925 807.186 423.868 807.2 423.807C807.213 423.745 807.214 423.682 807.2 423.62C803.267 407.533 799.38 391.493 795.54 375.5ZM781.209 384.924C781.207 384.76 781.14 384.603 781.022 384.488C780.905 384.373 780.746 384.31 780.582 384.312L775.982 384.368C775.901 384.369 775.82 384.386 775.745 384.418C775.671 384.45 775.603 384.497 775.546 384.555C775.489 384.613 775.444 384.682 775.414 384.758C775.384 384.833 775.369 384.914 775.37 384.996L775.371 385.076C775.373 385.24 775.44 385.397 775.558 385.512C775.675 385.627 775.834 385.69 775.998 385.688L780.598 385.632C780.679 385.631 780.76 385.614 780.835 385.582C780.909 385.55 780.977 385.503 781.034 385.445C781.091 385.387 781.136 385.318 781.166 385.242C781.196 385.167 781.211 385.086 781.21 385.004L781.209 384.924ZM779.39 423.51C779.405 423.66 779.474 423.8 779.584 423.904C779.695 424.007 779.839 424.066 779.99 424.07L784.6 424.17C784.687 424.172 784.773 424.155 784.853 424.122C784.932 424.088 785.004 424.038 785.064 423.975C785.123 423.912 785.169 423.837 785.197 423.755C785.226 423.673 785.237 423.586 785.23 423.5L782.05 388.73C782.035 388.578 781.965 388.437 781.852 388.333C781.74 388.23 781.593 388.172 781.44 388.17L776.85 388.08C776.762 388.078 776.675 388.095 776.595 388.129C776.514 388.163 776.442 388.214 776.382 388.279C776.323 388.343 776.278 388.419 776.25 388.502C776.222 388.585 776.211 388.673 776.22 388.76L779.39 423.51ZM290.26 408.41C289 408.71 288.53 409.49 288.85 410.75L301.53 459.98C301.617 460.32 301.837 460.497 302.19 460.51L307.04 460.7C307.101 460.703 307.162 460.691 307.218 460.667C307.274 460.642 307.324 460.605 307.365 460.558C307.405 460.511 307.434 460.455 307.451 460.395C307.467 460.335 307.47 460.272 307.46 460.21C304.3 442.77 299.67 426.05 295.73 408.96C295.457 407.78 294.727 407.333 293.54 407.62L290.26 408.41ZM326.62 433.19C326.62 433.35 326.62 433.443 326.62 433.47C326.62 433.557 326.627 433.557 326.64 433.47C326.753 432.61 326.953 431.773 327.24 430.96C329.467 424.56 331.913 418.36 334.58 412.36C334.84 411.773 334.68 411.353 334.1 411.1C331.353 409.873 328.533 409.027 325.64 408.56C325.2 408.487 324.93 408.667 324.83 409.1L320.27 428.5C320.199 428.806 320.252 429.128 320.419 429.396C320.585 429.664 320.852 429.856 321.16 429.93C323.6 430.497 325.377 431.463 326.49 432.83C326.574 432.934 326.62 433.061 326.62 433.19ZM194.59 427.97C193.923 427.863 193.743 428.11 194.05 428.71C194.237 429.083 194.527 429.153 194.92 428.92C195.147 428.787 195.383 428.767 195.63 428.86C196.03 429.007 196.407 428.97 196.76 428.75C196.802 428.722 196.835 428.682 196.855 428.635C196.874 428.588 196.88 428.536 196.87 428.487C196.86 428.438 196.836 428.394 196.8 428.361C196.764 428.327 196.719 428.306 196.67 428.3L194.59 427.97ZM202.35 428.2L198.07 428.16C198.003 428.16 197.938 428.186 197.89 428.233C197.841 428.279 197.813 428.343 197.81 428.41L197.79 428.69C197.79 428.77 197.83 428.813 197.91 428.82L202.42 429.01C202.45 429.011 202.479 429.007 202.507 428.996C202.535 428.986 202.561 428.97 202.582 428.949C202.604 428.929 202.621 428.904 202.632 428.877C202.644 428.849 202.65 428.82 202.65 428.79L202.64 428.49C202.64 428.413 202.609 428.339 202.555 428.285C202.501 428.231 202.427 428.2 202.35 428.2ZM767.82 476.31C770.75 459.89 773.3 444.51 776.81 429.95C776.821 429.906 776.821 429.86 776.811 429.816C776.802 429.772 776.782 429.731 776.754 429.695C776.727 429.659 776.691 429.631 776.65 429.611C776.61 429.591 776.565 429.58 776.52 429.58L758.77 429.56C758.39 429.56 758.23 429.747 758.29 430.12C760.85 445.96 763.76 461.36 767.02 476.32C767.313 477.667 767.58 477.663 767.82 476.31ZM817.24 431.84L822.13 455.11L826.48 478.62C826.693 479.773 826.857 479.767 826.97 478.6C827.11 477.14 827.07 475.96 827.43 474.5C830.68 461.47 832.49 447.25 834.7 434.4C834.913 433.16 835.05 431.873 835.11 430.54C835.115 430.428 835.098 430.315 835.059 430.21C835.019 430.105 834.959 430.008 834.882 429.927C834.804 429.846 834.711 429.781 834.607 429.737C834.504 429.693 834.392 429.67 834.28 429.67L817.29 429.68C816.997 429.68 816.877 429.823 816.93 430.11L817.24 431.84ZM820.36 460.03L814.61 432.1C814.797 431.587 814.743 430.94 814.45 430.16C814.337 429.853 814.117 429.7 813.79 429.7L779.46 429.82C779.133 429.827 778.94 429.987 778.88 430.3L769.13 483.25C769.058 483.665 769.075 484.091 769.18 484.5C770.773 490.453 772.41 496.797 774.09 503.53C776.16 511.81 778.68 519.24 781.2 527.07C781.285 527.337 781.452 527.57 781.676 527.735C781.901 527.901 782.172 527.99 782.45 527.99L812.53 528C813.137 528 813.53 527.71 813.71 527.13C817.81 513.723 821.573 500.03 825 486.05C825.18 485.337 825.21 484.653 825.09 484C824.25 479.153 822.673 471.163 820.36 460.03ZM322.487 433.496C322.548 433.443 322.592 433.37 322.614 433.281C322.637 433.193 322.639 433.091 322.619 432.981C322.6 432.871 322.559 432.755 322.501 432.641C322.442 432.526 322.366 432.414 322.277 432.312C322.098 432.107 321.876 431.952 321.662 431.883C321.447 431.814 321.257 431.836 321.133 431.944C321.072 431.997 321.028 432.07 321.006 432.159C320.983 432.247 320.981 432.349 321.001 432.459C321.02 432.569 321.061 432.685 321.119 432.8C321.178 432.914 321.254 433.026 321.343 433.128C321.522 433.333 321.744 433.488 321.958 433.557C322.173 433.626 322.363 433.604 322.487 433.496ZM317.18 458.97C320.2 451.85 322.78 445.19 324.92 438.99C325.06 438.59 324.927 438.33 324.52 438.21C322.707 437.697 321.077 436.747 319.63 435.36C319.587 435.321 319.535 435.294 319.479 435.281C319.422 435.267 319.364 435.269 319.309 435.285C319.254 435.302 319.205 435.332 319.167 435.373C319.128 435.414 319.102 435.465 319.09 435.52L314.18 459.83C314.113 460.163 314.247 460.35 314.58 460.39C315.847 460.543 316.713 460.07 317.18 458.97ZM188.85 438.24C173.06 445.41 162.68 456.53 157.62 472.82C157.6 472.884 157.595 472.953 157.606 473.02C157.616 473.086 157.643 473.149 157.683 473.204C157.723 473.259 157.775 473.303 157.835 473.334C157.896 473.364 157.962 473.38 158.03 473.38L223.76 473.42C224.053 473.42 224.173 473.273 224.12 472.98C221.47 459.49 215.01 445.97 204.25 437.49C203.957 437.257 203.627 437.12 203.26 437.08C198.28 436.51 193.36 436.19 188.85 438.24ZM463.47 473.01C521.057 473.09 579.183 473.137 637.85 473.15C641.697 473.15 644.647 472.74 646.7 471.92C654.44 468.82 659.16 461.21 659.71 453.07C660.003 448.777 660.063 444.34 659.89 439.76C659.882 439.535 659.787 439.321 659.625 439.164C659.462 439.007 659.246 438.92 659.02 438.92L367.01 438.96C366.65 438.96 366.467 439.14 366.46 439.5C366.333 443.42 366.34 447.58 366.48 451.98C366.76 461.12 372.91 470.35 382.2 472.51C383.693 472.857 387.573 473.027 393.84 473.02C415.553 472.987 438.763 472.983 463.47 473.01ZM555.49 475.32C530.177 475.573 502.563 475.6 472.65 475.4C472.435 475.399 472.228 475.48 472.068 475.626C471.909 475.772 471.81 475.974 471.79 476.19L471.08 484.83C471.047 485.21 471.213 485.46 471.58 485.58C486.16 490.167 496.803 499.183 503.51 512.63C503.743 513.097 504.123 513.33 504.65 513.33L563.66 513.06C564.32 513.06 564.61 512.733 564.53 512.08L559.98 476.17C559.907 475.61 559.59 475.327 559.03 475.32C557.89 475.307 556.71 475.307 555.49 475.32ZM175.11 493.68C172.61 489.18 172.94 484.04 173.52 479.06C173.62 478.147 173.217 477.61 172.31 477.45L171.24 477.27C170.16 477.083 169.543 477.533 169.39 478.62C168.68 483.73 168.31 491.4 171.5 495.88C171.695 496.15 171.956 496.363 172.258 496.499C172.561 496.634 172.892 496.686 173.22 496.65C173.74 496.59 174.19 496.423 174.57 496.15C175.477 495.49 175.657 494.667 175.11 493.68ZM502.19 514.45C494.54 498.2 480.75 489.34 463.18 485.4C454.687 483.487 445.913 482.303 436.86 481.85C414.247 480.71 391.53 481.463 368.71 484.11C358.597 485.29 348.767 487.49 339.22 490.71C333.19 492.74 326.85 497.26 325.76 503.96C325.62 504.827 325.863 504.953 326.49 504.34C327.87 502.987 329.207 501.713 330.5 500.52C336.04 495.41 344.22 493.39 351.43 491.62C354.97 490.753 358.457 490.09 361.89 489.63C388.643 486.01 415.39 485.08 442.13 486.84C449.997 487.353 457.957 488.62 466.01 490.64C477.79 493.59 488.03 499.99 494.81 510.12C496.783 513.067 498.63 516.577 500.35 520.65C504.18 529.74 508.52 538.46 512.17 547.8C522.623 574.493 532.013 602.09 540.34 630.59C547.89 656.47 550.59 681.97 542.67 707.8C542.4 708.7 541.77 709.58 541.27 710.36C541.043 710.72 541.13 710.967 541.53 711.1L544.21 712.02C544.743 712.2 545.12 712.027 545.34 711.5C547.52 706.153 549.043 700.983 549.91 695.99C552.963 678.417 552.263 660.387 547.81 641.9C545.41 631.94 542.003 620.07 537.59 606.29C526.51 571.67 514.71 541.057 502.19 514.45ZM763.26 528.03L778.53 528.07C778.903 528.07 779.033 527.893 778.92 527.54L771.35 504.03L768.3 491.32C768.08 490.4 767.873 490.403 767.68 491.33L760.27 527.33C760.203 527.643 760.327 527.843 760.64 527.93C761.467 528.163 762.34 528.197 763.26 528.03ZM824.83 497.61C822.61 506.283 819.753 516.23 816.26 527.45C816.238 527.522 816.233 527.598 816.246 527.672C816.259 527.746 816.289 527.816 816.334 527.876C816.378 527.936 816.437 527.985 816.504 528.019C816.571 528.053 816.645 528.07 816.72 528.07L832.49 528.08C832.87 528.087 833.023 527.903 832.95 527.53L826.48 493.74C826.173 492.147 825.89 492.15 825.63 493.75C825.403 495.13 825.137 496.417 824.83 497.61ZM250.17 496.67C251.25 495.71 252.57 495.19 253.67 494.26C253.983 494 254.087 493.673 253.98 493.28C253.88 492.907 253.647 492.783 253.28 492.91C249.72 494.097 247.21 495.5 245.75 497.12C239.743 503.753 237.6 511.977 239.32 521.79C239.633 523.597 240.367 525.347 241.52 527.04C241.689 527.29 241.911 527.5 242.17 527.653C242.429 527.807 242.72 527.902 243.02 527.93L244.2 528.05C244.86 528.117 245.037 527.86 244.73 527.28C239.35 517.14 241.76 504.2 250.17 496.67ZM260.42 495C260.827 495.107 261.153 495.003 261.4 494.69C261.78 494.203 261.663 493.927 261.05 493.86C259.49 493.68 257.4 493.74 256.01 494.63C251.91 497.257 248.673 501.193 246.3 506.44C243.04 513.633 243.507 520.71 247.7 527.67C247.733 527.728 247.782 527.776 247.839 527.809C247.897 527.843 247.963 527.86 248.03 527.86L251.75 527.99C251.767 527.991 251.783 527.987 251.798 527.979C251.813 527.971 251.825 527.959 251.833 527.945C251.842 527.93 251.846 527.914 251.845 527.897C251.845 527.88 251.839 527.864 251.83 527.85C247.03 521.157 246.223 514.257 249.41 507.15C251.857 501.69 255.273 497.677 259.66 495.11C259.891 494.975 260.164 494.936 260.42 495ZM239.61 526.83C237.383 523.51 236.267 520.037 236.26 516.41C236.233 507.963 238.887 501.137 244.22 495.93C245.787 494.403 245.51 493.903 243.39 494.43C241.763 494.83 240.387 495.713 239.26 497.08C232.43 505.38 230.62 517.14 236.03 526.8C236.463 527.573 237.12 527.963 238 527.97L238.99 527.98C239.923 527.987 240.13 527.603 239.61 526.83ZM323.9 502.88C324.153 501.967 324.483 501.117 324.89 500.33C325.09 499.957 324.977 499.77 324.55 499.77C308.937 499.803 292.087 499.737 274 499.57C270.153 499.537 266.32 499.377 262.5 499.09C262.488 499.088 262.475 499.089 262.464 499.094C262.452 499.098 262.441 499.105 262.433 499.115C262.424 499.124 262.417 499.136 262.414 499.149C262.41 499.162 262.408 499.176 262.41 499.19C262.59 500.277 262.97 501.37 263.55 502.47C263.59 502.55 263.653 502.59 263.74 502.59L323.72 503.02C323.813 503.02 323.873 502.973 323.9 502.88ZM258.81 524.96C260.89 518.65 261.07 510.63 260.77 504.18C260.723 503.153 260.527 502.167 260.18 501.22C260.151 501.143 260.105 501.074 260.044 501.019C259.983 500.964 259.909 500.924 259.83 500.904C259.75 500.883 259.667 500.882 259.587 500.9C259.507 500.919 259.432 500.957 259.37 501.01C253.54 505.95 252.82 514.99 255.61 521.65C256.19 523.043 256.977 524.213 257.97 525.16C258.032 525.22 258.108 525.264 258.191 525.287C258.274 525.31 258.361 525.312 258.445 525.292C258.529 525.272 258.607 525.231 258.67 525.173C258.734 525.115 258.782 525.042 258.81 524.96ZM320.39 510.92C320.46 510.922 320.528 510.902 320.586 510.862C320.643 510.823 320.687 510.766 320.71 510.7L322.56 505.26C322.576 505.211 322.58 505.159 322.571 505.108C322.563 505.057 322.543 505.009 322.513 504.967C322.483 504.925 322.444 504.891 322.398 504.867C322.352 504.843 322.302 504.831 322.25 504.83L264.1 504.41C264.014 504.41 263.932 504.443 263.87 504.503C263.809 504.563 263.773 504.644 263.77 504.73L263.57 510.66C263.569 510.704 263.576 510.748 263.592 510.789C263.608 510.831 263.632 510.868 263.663 510.9C263.694 510.932 263.731 510.957 263.771 510.974C263.812 510.991 263.856 511 263.9 511L320.39 510.92ZM693.82 507.59C693.773 507.59 693.728 507.601 693.686 507.622C693.644 507.643 693.608 507.673 693.58 507.71L685.15 519.42C685.116 519.465 685.096 519.519 685.091 519.576C685.086 519.632 685.098 519.689 685.124 519.739C685.15 519.789 685.19 519.831 685.239 519.859C685.288 519.888 685.343 519.902 685.4 519.9L744.39 519.88C744.447 519.882 744.503 519.868 744.551 519.839C744.6 519.811 744.64 519.769 744.666 519.719C744.692 519.669 744.704 519.612 744.699 519.556C744.694 519.499 744.674 519.445 744.64 519.4L736.19 507.7C736.162 507.663 736.126 507.633 736.084 507.612C736.043 507.591 735.997 507.58 735.95 507.58L693.82 507.59ZM317.62 520.46C317.771 520.46 317.918 520.41 318.037 520.318C318.157 520.226 318.242 520.096 318.28 519.95L319.92 513.79C319.946 513.69 319.949 513.586 319.928 513.485C319.908 513.384 319.864 513.289 319.802 513.207C319.739 513.125 319.659 513.058 319.567 513.012C319.475 512.966 319.373 512.941 319.27 512.94L264.09 512.71C263.918 512.71 263.752 512.774 263.626 512.891C263.5 513.008 263.423 513.169 263.41 513.34L262.95 519.58C262.943 519.673 262.956 519.767 262.987 519.856C263.018 519.944 263.067 520.025 263.131 520.094C263.194 520.162 263.272 520.217 263.358 520.254C263.444 520.291 263.536 520.31 263.63 520.31L317.62 520.46ZM585.18 525.91C584.96 526.03 584.657 526.073 584.27 526.04C580.78 525.75 577.34 526.05 573.86 526.05C554.373 526.017 534.727 526.107 514.92 526.32C513.347 526.333 511.68 526.3 509.92 526.22C509.85 526.216 509.781 526.228 509.716 526.255C509.651 526.281 509.594 526.322 509.547 526.374C509.5 526.425 509.465 526.487 509.445 526.554C509.425 526.62 509.419 526.691 509.43 526.76L509.49 527.13C509.53 527.373 509.646 527.598 509.822 527.773C509.997 527.949 510.224 528.066 510.47 528.11C513.71 528.68 516.83 528.3 520.09 528.28C542.59 528.2 565.09 528.11 587.59 528.01C588.21 528.01 588.623 527.9 588.83 527.68C589.15 527.34 589.143 526.807 588.81 526.08C588.666 525.766 588.445 525.5 588.17 525.31C584.877 522.99 581.39 520.553 577.71 518C575.417 516.413 573.183 515.613 571.01 515.6C553.11 515.507 531.183 515.51 505.23 515.61C504.537 515.617 504.423 515.873 504.89 516.38L505.35 516.88C505.777 517.347 506.303 517.58 506.93 517.58C517.137 517.587 526.827 517.53 536 517.41C544.993 517.29 553.997 517.33 563.01 517.53C565.27 517.577 567.59 517.513 569.97 517.34C573.52 517.09 576.72 518.81 579.4 520.92C581.28 522.407 583.21 523.7 585.19 524.8C585.29 524.855 585.373 524.936 585.431 525.034C585.488 525.132 585.518 525.244 585.517 525.358C585.516 525.472 585.484 525.583 585.425 525.681C585.365 525.778 585.281 525.857 585.18 525.91ZM628.27 528.14L653.91 527.92C653.968 527.92 654.024 527.897 654.066 527.856C654.107 527.814 654.13 527.758 654.13 527.7V527.59C654.117 526.102 653.808 524.631 653.219 523.262C652.631 521.892 651.775 520.65 650.7 519.607C649.626 518.564 648.354 517.741 646.957 517.184C645.561 516.627 644.066 516.347 642.56 516.36L639.42 516.38C636.378 516.407 633.471 517.626 631.339 519.77C629.207 521.913 628.024 524.805 628.05 527.81V527.92C628.05 527.949 628.056 527.978 628.067 528.004C628.078 528.031 628.094 528.055 628.114 528.076C628.135 528.096 628.159 528.112 628.186 528.123C628.212 528.134 628.241 528.14 628.27 528.14ZM573.66 520.88C573.327 520.82 573.053 520.647 572.84 520.36C572.613 520.053 572.31 519.9 571.93 519.9L565.37 519.84C565.017 519.84 564.673 519.777 564.34 519.65C563.42 519.29 562.51 519.383 561.61 519.93C561.07 520.263 561.11 520.353 561.73 520.2C561.99 520.133 562.253 520.063 562.52 519.99C562.867 519.89 563.197 519.923 563.51 520.09C565.74 521.28 567.82 522.68 570.29 523.24C572.05 523.64 573.87 523.83 575.75 523.81C577.85 523.79 578.04 523.177 576.32 521.97C575.527 521.417 574.64 521.053 573.66 520.88ZM535.59 520.16C537.7 521.51 540.18 523.38 542.73 523.41C544.73 523.437 546.757 523.42 548.81 523.36C550.103 523.313 550.153 523.043 548.96 522.55C547.507 521.95 546.073 521.39 544.66 520.87C541.64 519.76 538.55 520.14 535.46 519.58C535.36 519.56 535.263 519.563 535.17 519.59C535.077 519.623 535.013 519.697 534.98 519.81C534.976 519.829 534.975 519.849 534.979 519.868C534.983 519.888 534.991 519.906 535.002 519.922C535.013 519.938 535.028 519.951 535.045 519.961C535.062 519.971 535.08 519.978 535.1 519.98C535.28 520.007 535.443 520.067 535.59 520.16ZM561.89 522.27C557.82 519.84 554.42 520.39 550.07 519.66C549.517 519.567 549.443 519.71 549.85 520.09C552.957 522.997 556.197 524.033 559.57 523.2C560.73 522.91 561.64 523.11 562.79 523.21C563.51 523.27 563.547 523.14 562.9 522.82C562.553 522.647 562.217 522.463 561.89 522.27ZM535.85 523.63C535.923 523.63 535.993 523.605 536.049 523.558C536.105 523.512 536.142 523.447 536.155 523.376C536.168 523.305 536.156 523.231 536.12 523.168C536.085 523.104 536.028 523.056 535.96 523.03L529.65 520.36C529.618 520.348 529.584 520.341 529.55 520.34L521.59 519.87C521.522 519.868 521.455 519.887 521.4 519.926C521.344 519.966 521.303 520.022 521.283 520.086C521.262 520.151 521.264 520.221 521.287 520.285C521.31 520.349 521.353 520.403 521.41 520.44L527.14 523.76C527.189 523.788 527.244 523.801 527.3 523.8L535.85 523.63ZM520.18 523.93C520.333 523.932 520.481 523.883 520.603 523.791C520.724 523.698 520.811 523.568 520.849 523.42C520.887 523.272 520.874 523.116 520.813 522.976C520.751 522.837 520.645 522.722 520.51 522.65L516.01 520.26C515.906 520.204 515.788 520.177 515.67 520.18L508.4 520.46C508.273 520.465 508.149 520.506 508.044 520.578C507.939 520.65 507.856 520.75 507.805 520.867C507.754 520.984 507.737 521.112 507.755 521.238C507.774 521.365 507.827 521.483 507.91 521.58L509.56 523.52C509.623 523.594 509.701 523.654 509.789 523.695C509.877 523.737 509.973 523.759 510.07 523.76L520.18 523.93ZM261.14 526.14C261.08 526.32 261.147 526.407 261.34 526.4C280.18 525.76 298.607 525.44 316.62 525.44C317.42 525.44 317.843 525.04 317.89 524.24L317.91 523.76C317.918 523.627 317.899 523.494 317.855 523.368C317.81 523.243 317.74 523.127 317.65 523.028C317.56 522.929 317.45 522.85 317.328 522.793C317.206 522.737 317.074 522.705 316.94 522.7C300.98 522.16 284.833 522.037 268.5 522.33C266.34 522.37 264.353 522.507 262.54 522.74C262.287 522.773 262.123 522.91 262.05 523.15L261.14 526.14ZM256.47 550.77L157.67 550.73C157.559 550.73 157.452 550.773 157.373 550.85C157.294 550.927 157.25 551.031 157.25 551.14L157.18 598.89L157.36 927.82C157.36 927.979 157.423 928.132 157.536 928.244C157.648 928.357 157.801 928.42 157.96 928.42L186.53 928.41C186.69 928.41 186.844 928.354 186.967 928.252C187.089 928.149 187.172 928.007 187.2 927.85C198.7 867.34 210.35 804.69 223 738.99C223.2 737.957 223.123 737.06 222.77 736.3C222.683 736.1 222.647 735.887 222.66 735.66C222.7 735.22 222.92 734.92 223.32 734.76C223.647 734.633 223.843 734.4 223.91 734.06C235.45 672.05 246.91 611.74 258.9 551.22C258.96 550.893 258.827 550.71 258.5 550.67C257.827 550.583 257.15 550.617 256.47 550.77ZM253.67 593.21L252.43 598.75L227.11 732.85C226.817 734.417 227.31 734.727 228.59 733.78L238.24 726.65L251 716.57C266.787 703.497 281.42 689.603 294.9 674.89C300.673 668.59 306.49 662.16 312.35 655.6C313.38 654.44 314.03 653.66 313.95 651.98C313.137 635.067 312.867 618.143 313.14 601.21L315.11 551.13C315.113 551.072 315.104 551.014 315.083 550.959C315.063 550.905 315.032 550.855 314.991 550.813C314.951 550.771 314.903 550.737 314.849 550.715C314.796 550.692 314.738 550.68 314.68 550.68L271.17 550.79L262.41 550.88C262.275 550.88 262.145 550.927 262.041 551.013C261.936 551.098 261.866 551.218 261.84 551.35L253.67 593.21ZM524.04 561.34L526.11 566.89L537.33 598.94C542.297 614.24 545.553 624.76 547.1 630.5C551.61 647.25 554.83 664.69 553.36 681.51C553.313 682.043 553.53 682.193 554.01 681.96C555.13 681.43 556.08 680.99 557.28 680.59C572.65 675.43 605.22 665.49 607.42 692.25C607.66 695.26 607.11 700 603.51 700.93C592.663 703.717 581.95 706.457 571.37 709.15C570.97 709.257 570.833 709.507 570.96 709.9L574.75 722.08C574.883 722.513 575.17 722.783 575.61 722.89L576.32 723.07C576.713 723.17 576.947 723.417 577.02 723.81L578.18 729.6C578.247 729.947 578.457 730.123 578.81 730.13L766.77 730.29L777.11 730.42C777.85 730.76 778.07 731.47 777.77 732.55C777.67 732.91 777.43 733.09 777.05 733.09L580.22 733.15C579.887 733.15 579.7 733.32 579.66 733.66C579.513 735.027 579.803 736.54 580.53 738.2L581.62 742.7C581.672 742.922 581.798 743.119 581.978 743.261C582.157 743.403 582.38 743.48 582.61 743.48L677.22 742.96C711.387 743.167 745.563 743.35 779.75 743.51C782.09 743.523 784.337 743.66 786.49 743.92C786.575 743.931 786.661 743.922 786.742 743.893C786.823 743.864 786.896 743.816 786.954 743.754C787.013 743.691 787.056 743.616 787.079 743.533C787.103 743.451 787.107 743.364 787.09 743.28C786.82 741.84 786.23 740.5 785.93 739.04C773.51 678.62 760.14 614.26 747.33 551.48C747.3 551.334 747.22 551.203 747.105 551.11C746.99 551.017 746.847 550.967 746.7 550.97L740.05 551.08L730.52 551.1L722.56 550.92L520.45 550.89C520.413 550.889 520.375 550.898 520.342 550.915C520.309 550.932 520.28 550.956 520.258 550.987C520.236 551.017 520.222 551.053 520.218 551.09C520.213 551.127 520.217 551.165 520.23 551.2L524.04 561.34ZM432.66 707.37C433.027 708.357 433.353 709.353 433.64 710.36C433.813 710.96 434.21 711.253 434.83 711.24L437.9 711.14C438.527 711.127 438.727 710.827 438.5 710.24C431.067 691.033 425.56 670.453 421.98 648.5C417.227 619.293 414.22 590.267 412.96 561.42C412.953 561.273 412.877 561.197 412.73 561.19L408.87 561.08C408.803 561.073 408.773 561.103 408.78 561.17C409.907 595.763 413.697 629.683 420.15 662.93C423.063 677.93 427.233 692.743 432.66 707.37ZM250.46 720.2L249 721.66L232.67 733.64C232.397 733.84 232.427 733.93 232.76 733.91L237.45 733.67L249.44 732.94L255.96 732.82C262.373 732.727 268.72 732.497 275 732.13C282.807 731.677 306.447 731.41 345.92 731.33C346.6 731.33 346.853 731.657 346.68 732.31L346.34 733.64C346.153 734.367 345.687 734.73 344.94 734.73L288.8 734.91L236.52 737.58C236.38 737.587 236.31 737.66 236.31 737.8L236.37 742.88C236.377 743.02 236.447 743.09 236.58 743.09L342.99 743.46L342.67 746.43C342.645 746.653 342.54 746.86 342.374 747.009C342.207 747.159 341.992 747.241 341.77 747.24L245.59 746.98L233.14 747.11L225.25 746.72C224.992 746.706 224.738 746.786 224.534 746.946C224.33 747.106 224.19 747.335 224.14 747.59L190.19 927.69C190.123 928.023 190.263 928.193 190.61 928.2L198.42 928.3L208.31 928.45L293.45 928.36C293.757 928.36 293.953 928.21 294.04 927.91L354.75 712.24C354.83 711.94 354.717 711.793 354.41 711.8C349.183 711.9 343.807 711.947 338.28 711.94C330.57 711.93 325.35 702.35 322.93 696.31C319.91 688.817 317.7 680.907 316.3 672.58L315.01 666.26L314.52 657.33C314.517 657.254 314.491 657.18 314.445 657.118C314.399 657.057 314.336 657.011 314.264 656.986C314.191 656.961 314.113 656.959 314.039 656.979C313.965 656.999 313.899 657.042 313.85 657.1C294.497 679.827 273.367 700.86 250.46 720.2ZM603.95 686C600.54 677.56 590.07 675.73 582.19 676.9C572.383 678.36 563.15 680.767 554.49 684.12C554.095 684.273 553.75 684.531 553.493 684.867C553.235 685.202 553.075 685.601 553.03 686.02L552.86 687.49C552.787 688.177 553.077 688.413 553.73 688.2C563.7 684.95 574.2 681.6 585.05 680.85C596.72 680.05 603.44 686.77 601.11 698.59C600.957 699.39 601.273 699.683 602.06 699.47C602.633 699.31 603.157 699.083 603.63 698.79C604.363 698.343 604.837 697.7 605.05 696.86C605.89 693.533 605.523 689.913 603.95 686ZM548.28 714.93C543.52 716.15 543.7 714.69 540.36 712.4C540.047 712.187 539.697 712.08 539.31 712.08L521.99 712.03C521.663 712.023 521.497 712.187 521.49 712.52L521.39 730.01C521.39 730.417 521.593 730.62 522 730.62L570.64 730.34C570.953 730.34 571.067 730.19 570.98 729.89L565.67 710.8C565.597 710.52 565.42 710.417 565.14 710.49C559.307 712.057 553.687 713.537 548.28 714.93ZM359.6 711.89C359.508 711.888 359.419 711.917 359.345 711.971C359.27 712.025 359.216 712.102 359.19 712.19L353.9 730.5C353.881 730.562 353.878 730.629 353.889 730.693C353.9 730.757 353.926 730.818 353.965 730.87C354.004 730.922 354.054 730.965 354.112 730.995C354.171 731.024 354.235 731.04 354.3 731.04L430.62 730.53C430.726 730.528 430.828 730.485 430.904 730.411C430.98 730.337 431.025 730.236 431.03 730.13L431.63 712.22C431.631 712.164 431.621 712.108 431.601 712.056C431.58 712.004 431.55 711.957 431.511 711.917C431.471 711.876 431.425 711.845 431.373 711.823C431.321 711.801 431.266 711.79 431.21 711.79L359.6 711.89ZM513.51 730.65C513.596 730.65 513.678 730.617 513.74 730.557C513.801 730.497 513.837 730.416 513.84 730.33L514.23 712.15C514.231 712.106 514.224 712.062 514.208 712.021C514.192 711.979 514.168 711.942 514.137 711.91C514.106 711.878 514.069 711.853 514.029 711.836C513.988 711.819 513.944 711.81 513.9 711.81L438.36 711.9C438.274 711.9 438.192 711.933 438.13 711.993C438.069 712.053 438.033 712.134 438.03 712.22L437.64 730.4C437.639 730.444 437.646 730.488 437.662 730.529C437.678 730.571 437.702 730.608 437.733 730.64C437.764 730.672 437.801 730.697 437.841 730.714C437.882 730.731 437.926 730.74 437.97 730.74L513.51 730.65ZM573.66 743.24C573.759 743.239 573.857 743.215 573.945 743.17C574.034 743.126 574.111 743.061 574.171 742.982C574.231 742.903 574.272 742.811 574.291 742.714C574.31 742.616 574.306 742.516 574.28 742.42L572.01 733.81C571.974 733.67 571.893 733.546 571.779 733.457C571.665 733.368 571.525 733.32 571.38 733.32L521.68 733.68C521.595 733.68 521.51 733.697 521.431 733.729C521.352 733.762 521.281 733.81 521.22 733.87C521.16 733.931 521.112 734.002 521.079 734.081C521.047 734.16 521.03 734.245 521.03 734.33L521.04 742.64C521.04 742.725 521.057 742.81 521.089 742.889C521.122 742.968 521.17 743.039 521.23 743.1C521.291 743.16 521.362 743.208 521.441 743.241C521.52 743.273 521.605 743.29 521.69 743.29L573.66 743.24ZM430.58 733.86L391.05 733.84L353 734.36C352.847 734.36 352.75 734.437 352.71 734.59L350.5 743.06C350.447 743.247 350.517 743.34 350.71 743.34L430.26 743.23C430.358 743.23 430.452 743.191 430.522 743.122C430.591 743.052 430.63 742.958 430.63 742.86L430.58 733.86ZM437.25 737.73L437.17 742.86C437.17 743.147 437.31 743.29 437.59 743.29L513.08 743.34C513.282 743.34 513.475 743.26 513.617 743.117C513.76 742.975 513.84 742.782 513.84 742.58V738.53L513.85 734.57C513.85 734.459 513.828 734.349 513.785 734.246C513.742 734.144 513.68 734.051 513.6 733.973C513.521 733.894 513.428 733.833 513.325 733.791C513.221 733.75 513.111 733.729 513 733.73L437.96 734.15C437.613 734.15 437.393 734.317 437.3 734.65C437.04 735.59 437.023 736.617 437.25 737.73ZM226.65 737.75C226.524 737.752 226.401 737.796 226.303 737.876C226.205 737.956 226.137 738.067 226.11 738.19L225.1 743.01C225.082 743.094 225.083 743.181 225.103 743.264C225.123 743.347 225.163 743.425 225.218 743.49C225.273 743.556 225.342 743.608 225.421 743.643C225.499 743.677 225.584 743.694 225.67 743.69L234.03 743.3C234.104 743.297 234.176 743.28 234.243 743.25C234.31 743.219 234.37 743.176 234.42 743.122C234.47 743.068 234.509 743.005 234.535 742.936C234.561 742.867 234.573 742.794 234.57 742.72L234.45 738.25C234.447 738.103 234.387 737.963 234.283 737.86C234.178 737.758 234.037 737.7 233.89 737.7L226.65 737.75ZM319.07 928.33L322.92 928.42L425.64 928.39C426.027 928.39 426.223 928.197 426.23 927.81L430.24 747.52C430.241 747.485 430.236 747.45 430.223 747.417C430.211 747.385 430.192 747.355 430.167 747.33C430.143 747.304 430.114 747.284 430.082 747.271C430.05 747.257 430.015 747.25 429.98 747.25L401.05 747.1L388.45 747.23L350.24 747.05C349.99 747.049 349.747 747.13 349.548 747.28C349.349 747.43 349.206 747.641 349.14 747.88L298.56 927.76C298.467 928.093 298.597 928.263 298.95 928.27L319.07 928.33ZM454.96 928.35L458.43 928.39H510.84C510.958 928.39 511.071 928.343 511.155 928.259C511.239 928.175 511.287 928.06 511.29 927.94L513.31 747.49C513.31 747.31 513.22 747.22 513.04 747.22L464.49 747.18H458.13L437.32 747.12C437.162 747.12 437.009 747.183 436.896 747.295C436.782 747.407 436.715 747.559 436.71 747.72L430.8 927.69C430.796 927.79 430.812 927.889 430.848 927.982C430.884 928.076 430.939 928.161 431.009 928.233C431.079 928.305 431.163 928.362 431.256 928.401C431.349 928.44 431.449 928.46 431.55 928.46L454.96 928.35ZM522.79 928.37L625.14 928.38C625.353 928.38 625.43 928.277 625.37 928.07L575.46 747.74C575.416 747.587 575.325 747.452 575.201 747.357C575.076 747.261 574.925 747.209 574.77 747.21L527.33 747.12L521.35 747.18C521.202 747.183 521.061 747.242 520.957 747.347C520.852 747.451 520.793 747.592 520.79 747.74L516.84 928.03C516.839 928.082 516.848 928.134 516.867 928.182C516.886 928.231 516.914 928.275 516.951 928.312C516.987 928.35 517.03 928.379 517.078 928.399C517.126 928.42 517.178 928.43 517.23 928.43L522.79 928.37ZM608.79 747.23L603.5 747.29L584.17 747.24C583.143 747.24 582.763 747.733 583.03 748.72L630.72 927.24C630.92 927.993 631.413 928.37 632.2 928.37L651.26 928.36L656.01 928.37L733.19 928.41C733.317 928.41 733.439 928.36 733.529 928.272C733.619 928.184 733.67 928.065 733.67 927.94L733.68 880.82C733.68 880.595 733.59 880.378 733.431 880.219C733.272 880.06 733.055 879.97 732.83 879.97L712.95 879.93C712.463 879.93 712.22 879.687 712.22 879.2L712.18 825.78C712.18 825.642 712.207 825.506 712.259 825.378C712.311 825.251 712.388 825.135 712.485 825.038C712.581 824.94 712.696 824.863 712.822 824.81C712.948 824.757 713.083 824.73 713.22 824.73L733 824.65C733.17 824.65 733.333 824.581 733.453 824.46C733.573 824.338 733.64 824.172 733.64 824L733.62 797.99C733.62 797.557 733.833 797.35 734.26 797.37L741.74 797.63C742.08 797.643 742.25 797.48 742.25 797.14C742.197 793.047 742.34 789.02 742.68 785.06C744.04 769.31 757.4 764.67 770.78 762.2C771.787 762.013 772.797 761.92 773.81 761.92C774.17 761.92 774.41 762.087 774.53 762.42L775.37 764.73C775.23 765.223 775.197 765.83 775.27 766.55C767.723 767.43 761.373 769.217 756.22 771.91C753.713 773.217 751.593 775.29 749.86 778.13C746.71 783.3 747.22 790.77 747.38 796.69C747.393 797.123 747.617 797.34 748.05 797.34L782.09 797.35L810.87 926.76C811.057 927.62 811.59 928.05 812.47 928.05L821.46 928.04C821.525 928.039 821.59 928.024 821.649 927.997C821.709 927.969 821.762 927.929 821.805 927.879C821.848 927.829 821.881 927.771 821.901 927.707C821.92 927.643 821.927 927.576 821.92 927.51C821.727 925.983 821.463 924.403 821.13 922.77C816.83 901.623 811.31 875.413 804.57 844.14C799.59 821.06 796.297 806.14 794.69 799.38C794.43 798.767 794.33 798.293 794.39 797.96C794.45 797.653 794.633 797.513 794.94 797.54L796.94 797.7C797.467 797.74 797.677 797.5 797.57 796.98L791.11 765.71C791.037 765.337 790.81 765.157 790.43 765.17L787.84 765.24C787.22 765.26 786.843 764.967 786.71 764.36L786.02 761.29C785.887 760.703 786.123 760.393 786.73 760.36L789.44 760.2C789.847 760.18 790.01 759.97 789.93 759.57L787.49 747.76C787.449 747.569 787.338 747.401 787.179 747.288C787.019 747.175 786.824 747.126 786.63 747.15L784.16 747.48L771.23 747.43L608.79 747.23ZM848.97 771.4C832.43 765 813.25 764.82 795.48 764.85C795.428 764.852 795.377 764.865 795.33 764.889C795.284 764.912 795.243 764.946 795.211 764.986C795.178 765.027 795.155 765.075 795.143 765.125C795.131 765.176 795.13 765.229 795.14 765.28L801.67 797.01C801.743 797.39 801.977 797.58 802.37 797.58C822.017 797.36 841.173 797.287 859.84 797.36C859.936 797.36 860.027 797.322 860.095 797.255C860.162 797.187 860.2 797.095 860.2 797C860.16 786.29 861.15 776.11 848.97 771.4ZM833.61 927.55L808.03 800.55C807.978 800.293 807.861 800.053 807.691 799.854C807.522 799.654 807.304 799.502 807.06 799.41C806.68 799.263 806.273 799.2 805.84 799.22C805.34 799.24 805.14 799.493 805.24 799.98L830.86 927.21C830.926 927.525 831.094 927.809 831.336 928.017C831.579 928.225 831.883 928.346 832.2 928.36L832.89 928.39C833.49 928.417 833.73 928.137 833.61 927.55ZM752.8 812.51C753.164 812.138 753.65 811.911 754.169 811.871C754.687 811.831 755.203 811.979 755.62 812.29L758.41 814.38C758.526 814.467 758.664 814.522 758.808 814.536C758.953 814.551 759.099 814.527 759.231 814.465C759.362 814.403 759.474 814.307 759.555 814.186C759.636 814.066 759.683 813.925 759.69 813.78L760.26 802.6C760.28 802.133 760.057 801.9 759.59 801.9H749.31C749.03 801.9 748.893 802.04 748.9 802.32L749.15 814.51C749.15 814.561 749.163 814.611 749.188 814.655C749.212 814.699 749.248 814.737 749.29 814.764C749.333 814.791 749.382 814.806 749.433 814.809C749.484 814.812 749.534 814.802 749.58 814.78C750.84 814.16 751.913 813.403 752.8 812.51ZM852.34 812.15L855.85 814.45C856.357 814.79 856.62 814.653 856.64 814.04L857 802.58C857.02 802.113 856.797 801.877 856.33 801.87L846.66 801.69C846.213 801.683 845.993 801.9 846 802.34L846.04 813.95C846.04 814.97 846.433 815.153 847.22 814.5L849.87 812.29C850.212 812.006 850.636 811.839 851.08 811.814C851.524 811.789 851.966 811.907 852.34 812.15ZM743.54 827.3C743.627 827.307 743.67 827.353 743.67 827.44L743.83 838.17C743.835 838.384 743.92 838.588 744.069 838.741C744.218 838.893 744.418 838.982 744.63 838.99C749.583 839.197 754.337 839.19 758.89 838.97C759.152 838.958 759.406 838.873 759.623 838.726C759.84 838.578 760.012 838.374 760.12 838.135C760.227 837.895 760.267 837.631 760.233 837.37C760.2 837.11 760.095 836.864 759.93 836.66C755.67 831.35 749.54 824.92 742.09 825.3C730.61 825.88 721.23 825.997 713.95 825.65C713.523 825.63 713.31 825.833 713.31 826.26L713.4 857.24C713.4 857.399 713.462 857.552 713.573 857.664C713.683 857.777 713.834 857.84 713.99 857.84L759.15 857.87C759.288 857.87 759.42 857.815 759.518 857.718C759.615 857.62 759.67 857.488 759.67 857.35L759.75 840.07C759.75 839.982 759.732 839.894 759.697 839.813C759.662 839.732 759.61 839.659 759.545 839.599C759.48 839.539 759.404 839.493 759.32 839.464C759.237 839.435 759.148 839.423 759.06 839.43C754.453 839.73 749.56 839.81 744.38 839.67C744.096 839.661 743.825 839.548 743.618 839.353C743.412 839.158 743.284 838.893 743.26 838.61C742.94 835.023 742.923 831.27 743.21 827.35C743.217 827.303 743.24 827.283 743.28 827.29L743.54 827.3ZM759.67 859.53C759.67 859.411 759.623 859.296 759.538 859.212C759.454 859.127 759.339 859.08 759.22 859.08H713.8C713.681 859.08 713.566 859.127 713.482 859.212C713.397 859.296 713.35 859.411 713.35 859.53V878.43C713.35 878.549 713.397 878.664 713.482 878.748C713.566 878.833 713.681 878.88 713.8 878.88H759.22C759.339 878.88 759.454 878.833 759.538 878.748C759.623 878.664 759.67 878.549 759.67 878.43V859.53Z" fill="#0B0E1D"/>
<path d="M320.75 257.36L330.3 257.67C330.8 257.69 331.017 257.947 330.95 258.44L330.91 258.71C330.88 258.934 330.767 259.139 330.593 259.284C330.418 259.428 330.196 259.502 329.97 259.49C325.63 259.263 321.307 259.033 317 258.8C316.573 258.773 316.147 258.803 315.72 258.89C314.72 259.097 314.433 259.663 314.86 260.59L320.34 272.4C320.513 272.773 320.43 273.077 320.09 273.31L319.77 273.54C319.723 273.572 319.67 273.594 319.613 273.605C319.557 273.615 319.5 273.614 319.444 273.6C319.389 273.587 319.336 273.563 319.291 273.528C319.245 273.494 319.208 273.45 319.18 273.4C316.84 269.107 314.85 264.897 313.21 260.77C312.963 260.15 312.73 260.153 312.51 260.78L306.89 276.76C306.73 277.207 306.42 277.38 305.96 277.28L305.46 277.17C304.973 277.063 304.817 276.777 304.99 276.31L311.25 259.77C311.53 259.043 311.283 258.633 310.51 258.54L308.27 258.28C307.87 258.233 307.58 258.393 307.4 258.76C305.787 262.12 303.69 265.7 301.11 269.5C300.941 269.743 300.684 269.912 300.395 269.97C300.106 270.028 299.806 269.97 299.56 269.81L299.31 269.64C299.196 269.568 299.116 269.454 299.086 269.323C299.056 269.192 299.079 269.054 299.15 268.94L305.17 259.53C305.24 259.421 305.281 259.296 305.287 259.167C305.294 259.037 305.266 258.909 305.208 258.793C305.149 258.678 305.061 258.58 304.953 258.509C304.844 258.438 304.719 258.397 304.59 258.39L298.82 258.01C298.4 257.983 298.173 257.763 298.14 257.35L298.11 256.98C298.07 256.513 298.287 256.3 298.76 256.34L311.06 257.35C311.125 257.356 311.191 257.345 311.25 257.318C311.31 257.292 311.362 257.251 311.402 257.199C311.442 257.147 311.468 257.087 311.478 257.022C311.488 256.958 311.482 256.891 311.46 256.83C309.887 252.363 307.907 248.02 305.52 243.8C305.472 243.714 305.444 243.619 305.438 243.521C305.433 243.423 305.449 243.325 305.487 243.235C305.525 243.145 305.582 243.065 305.656 243.002C305.729 242.939 305.816 242.894 305.91 242.87L306.17 242.81C306.381 242.757 306.604 242.778 306.801 242.871C306.998 242.964 307.157 243.123 307.25 243.32L312.22 253.75C312.447 254.23 312.653 254.22 312.84 253.72L318.29 238.83C318.457 238.377 318.783 238.157 319.27 238.17C319.397 238.177 319.513 238.217 319.62 238.29C320.067 238.617 320.193 239.033 320 239.54L314.02 255.42C313.58 256.587 313.973 257.3 315.2 257.56C317.147 257.967 318.347 257.443 318.8 255.99C318.973 255.43 319.217 254.903 319.53 254.41C321.07 252.01 322.627 249.56 324.2 247.06C324.287 246.927 324.38 246.8 324.48 246.68C325.46 245.547 326.273 245.317 326.92 245.99C326.999 246.075 327.046 246.185 327.054 246.3C327.061 246.415 327.028 246.528 326.96 246.62C324.367 250.12 322.207 253.543 320.48 256.89C320.32 257.19 320.41 257.347 320.75 257.36Z" fill="#0B0E1D"/>
<path d="M192.25 263.52L194.66 275.13C194.933 276.437 195.737 277.037 197.07 276.93C200.803 276.637 204.137 275.69 207.07 274.09C207.843 273.663 208.793 272.417 209.92 270.35C210.34 270.47 210.47 270.69 210.31 271.01C209.23 272.963 208.32 274.153 207.58 274.58C203.327 277.033 199.337 277.98 195.61 277.42C189.79 276.54 186.29 271.37 184.17 266.49C184.243 265.85 184.38 265.593 184.58 265.72C186.27 270.13 188.97 274.29 193.44 276.33C193.523 276.367 193.614 276.381 193.704 276.369C193.794 276.357 193.879 276.321 193.949 276.264C194.02 276.207 194.073 276.132 194.103 276.046C194.133 275.961 194.139 275.869 194.12 275.78L191.62 264.3C191.787 263.66 191.997 263.4 192.25 263.52Z" fill="#0B0E1D"/>
<path d="M211.15 271.68C211.357 271.82 211.657 271.88 212.05 271.86C209.403 276.62 207.087 281.507 205.1 286.52C202.88 292.12 201.99 298.04 200.89 303.9C200.823 304.273 200.843 304.64 200.95 305C201.003 305.18 201.03 305.36 201.03 305.54C201.03 305.853 200.933 305.89 200.74 305.65C200.42 305.263 200.283 304.883 200.33 304.51C201.15 297.297 202.47 291.293 204.29 286.5C205.21 284.073 207.497 279.133 211.15 271.68Z" fill="#0B0E1D"/>
<path d="M456.21 298.13H422.61C422.152 298.13 421.78 298.502 421.78 298.96V299.34C421.78 299.798 422.152 300.17 422.61 300.17H456.21C456.668 300.17 457.04 299.798 457.04 299.34V298.96C457.04 298.502 456.668 298.13 456.21 298.13Z" fill="#0B0E1D"/>
<path d="M461.128 306.806L422.448 306.874C421.918 306.875 421.489 307.305 421.49 307.835L421.49 307.955C421.491 308.486 421.922 308.915 422.452 308.914L461.132 308.846C461.662 308.845 462.091 308.415 462.09 307.885L462.09 307.765C462.089 307.234 461.658 306.805 461.128 306.806Z" fill="#0B0E1D"/>
<path d="M457.636 313.85L422.977 313.971C422.573 313.972 422.248 314.3 422.249 314.703L422.251 315.263C422.252 315.666 422.58 315.992 422.984 315.991L457.643 315.87C458.047 315.868 458.372 315.54 458.371 315.137L458.369 314.577C458.368 314.174 458.04 313.848 457.636 313.85Z" fill="#0B0E1D"/>
<path d="M455.898 323.901L423.118 323.959C422.572 323.96 422.129 324.404 422.13 324.95L422.13 324.99C422.131 325.537 422.575 325.98 423.122 325.979L455.902 325.921C456.449 325.92 456.891 325.476 456.89 324.93L456.89 324.89C456.889 324.343 456.445 323.9 455.898 323.901Z" fill="#0B0E1D"/>
<path d="M521.41 451.31C519.6 455.71 523.63 458.47 523.07 462.76C523.01 463.247 522.737 463.5 522.25 463.52C517.057 463.76 512.383 463.773 508.23 463.56C506.81 463.487 505.77 462.787 505.11 461.46C502.743 456.687 502.59 452.15 504.65 447.85C505.31 446.48 506.56 445.9 508.01 445.82C512.923 445.54 517.617 445.467 522.09 445.6C522.253 445.605 522.412 445.649 522.556 445.727C522.699 445.805 522.821 445.915 522.914 446.05C523.006 446.184 523.066 446.338 523.088 446.5C523.11 446.661 523.093 446.826 523.04 446.98C522.52 448.5 521.977 449.943 521.41 451.31Z" fill="#0B0E1D"/>
<path d="M646.48 522.02H636.04C635.532 522.02 635.12 522.432 635.12 522.94V523C635.12 523.508 635.532 523.92 636.04 523.92H646.48C646.988 523.92 647.4 523.508 647.4 523V522.94C647.4 522.432 646.988 522.02 646.48 522.02Z" fill="#0B0E1D"/>
<path d="M860.64 647.16C860.64 651.621 858.868 655.899 855.714 659.054C852.559 662.208 848.281 663.98 843.82 663.98C839.359 663.98 835.081 662.208 831.926 659.054C828.772 655.899 827 651.621 827 647.16C827 642.699 828.772 638.421 831.926 635.267C835.081 632.112 839.359 630.34 843.82 630.34C848.281 630.34 852.559 632.112 855.714 635.267C858.868 638.421 860.64 642.699 860.64 647.16ZM859.22 647.17C859.22 643.08 857.595 639.158 854.704 636.266C851.812 633.375 847.89 631.75 843.8 631.75C839.71 631.75 835.788 633.375 832.896 636.266C830.005 639.158 828.38 643.08 828.38 647.17C828.38 649.195 828.779 651.2 829.554 653.071C830.329 654.942 831.465 656.642 832.896 658.074C834.328 659.506 836.028 660.641 837.899 661.416C839.77 662.191 841.775 662.59 843.8 662.59C845.825 662.59 847.83 662.191 849.701 661.416C851.572 660.641 853.272 659.506 854.704 658.074C856.135 656.642 857.271 654.942 858.046 653.071C858.821 651.2 859.22 649.195 859.22 647.17Z" fill="#0B0E1D"/>
<path d="M671.35 655.73C671.35 658.25 670.349 660.666 668.568 662.448C666.786 664.229 664.37 665.23 661.85 665.23C659.33 665.23 656.914 664.229 655.133 662.448C653.351 660.666 652.35 658.25 652.35 655.73C652.35 653.21 653.351 650.794 655.133 649.013C656.914 647.231 659.33 646.23 661.85 646.23C664.37 646.23 666.786 647.231 668.568 649.013C670.349 650.794 671.35 653.21 671.35 655.73ZM670.09 655.72C670.09 653.54 669.224 651.449 667.682 649.908C666.141 648.366 664.05 647.5 661.87 647.5C660.791 647.5 659.722 647.713 658.724 648.126C657.727 648.539 656.821 649.144 656.058 649.908C655.294 650.671 654.689 651.577 654.276 652.574C653.863 653.572 653.65 654.641 653.65 655.72C653.65 656.799 653.863 657.868 654.276 658.866C654.689 659.863 655.294 660.769 656.058 661.532C656.821 662.296 657.727 662.901 658.724 663.314C659.722 663.727 660.791 663.94 661.87 663.94C664.05 663.94 666.141 663.074 667.682 661.532C669.224 659.991 670.09 657.9 670.09 655.72Z" fill="#0B0E1D"/>
<path d="M128.77 750.59C128.77 751.773 128.3 752.907 127.464 753.744C126.627 754.58 125.493 755.05 124.31 755.05C123.724 755.05 123.144 754.935 122.603 754.711C122.062 754.486 121.57 754.158 121.156 753.744C120.742 753.33 120.414 752.838 120.189 752.297C119.965 751.756 119.85 751.176 119.85 750.59C119.85 750.004 119.965 749.424 120.189 748.883C120.414 748.342 120.742 747.85 121.156 747.436C121.57 747.022 122.062 746.694 122.603 746.469C123.144 746.245 123.724 746.13 124.31 746.13C125.493 746.13 126.627 746.6 127.464 747.436C128.3 748.273 128.77 749.407 128.77 750.59ZM127.81 750.55C127.81 749.611 127.437 748.711 126.773 748.047C126.109 747.383 125.209 747.01 124.27 747.01C123.331 747.01 122.431 747.383 121.767 748.047C121.103 748.711 120.73 749.611 120.73 750.55C120.73 751.489 121.103 752.389 121.767 753.053C122.431 753.717 123.331 754.09 124.27 754.09C125.209 754.09 126.109 753.717 126.773 753.053C127.437 752.389 127.81 751.489 127.81 750.55Z" fill="#0B0E1D"/>
<path d="M212.05 271.86C211.657 271.88 211.357 271.82 211.15 271.68C211.45 271.06 211.637 270.42 211.71 269.76C211.77 269.273 211.65 269.227 211.35 269.62L210.31 271.01C210.47 270.69 210.34 270.47 209.92 270.35C210.887 268.083 211.803 265.797 212.67 263.49C214.87 257.643 216.043 251.423 216.19 244.83C216.38 235.83 213.5 227.99 203.56 227.13C199.87 226.81 194 226.99 192.85 231.1C191.977 234.213 191.447 237.68 191.26 241.5C190.9 248.88 191.23 256.22 192.25 263.52C191.997 263.4 191.787 263.66 191.62 264.3C189.72 252.95 189.35 240.32 192.49 229.13C192.603 228.737 192.497 228.66 192.17 228.9C186.95 232.8 183.767 237.33 182.62 242.49C180.953 249.977 181.607 257.72 184.58 265.72C184.38 265.593 184.243 265.85 184.17 266.49C179.01 254.3 179.05 238.29 190.27 229.51C191.55 228.51 192.777 227.407 193.95 226.2C195.957 224.147 198.24 222.873 200.8 222.38C209.47 220.72 214.81 227.56 216.43 235.43C218.94 247.61 217.58 260.92 212.05 271.86ZM213.34 229.81C209.74 221.9 200.19 220.54 194.47 226.99C193.563 228.01 193.713 228.203 194.92 227.57C199.8 225.01 208.7 226.15 212.64 230.29C213.807 231.517 214.04 231.357 213.34 229.81Z" fill="#0B0E1D"/>
<path d="M417.42 313.32C417.633 320.253 417.85 327.23 418.07 334.25C418.083 334.61 418.237 334.883 418.53 335.07C418.163 335.277 417.987 335.59 418 336.01C418.008 336.176 418.079 336.333 418.198 336.447C418.318 336.56 418.476 336.623 418.64 336.62C433.5 336.533 448.367 336.54 463.24 336.64C466.113 336.66 467.563 335.14 467.59 332.08C467.697 316.32 467.693 300.38 467.58 284.26C467.573 283.907 467.747 283.73 468.1 283.73C523.007 283.69 577.637 283.637 631.99 283.57C640.58 283.55 649.36 286.45 654.4 293.53C660.36 301.91 659.98 310.21 659.98 321.25C659.96 360.17 659.967 398.39 660 435.91C660 436.017 659.979 436.123 659.938 436.222C659.897 436.321 659.838 436.411 659.762 436.486C659.687 436.562 659.597 436.621 659.499 436.661C659.401 436.701 659.296 436.721 659.19 436.72C647.57 436.647 636.29 436.527 625.35 436.36C621.87 436.3 618.29 436.61 614.84 436.6C581.807 436.593 547.443 436.587 511.75 436.58C461.57 436.567 413.533 436.59 367.64 436.65C367.486 436.651 367.332 436.622 367.189 436.564C367.046 436.506 366.916 436.42 366.806 436.311C366.697 436.202 366.609 436.073 366.55 435.93C366.491 435.787 366.46 435.634 366.46 435.48C366.567 397.32 366.56 356.32 366.44 312.48C366.39 296.27 374.93 284.37 392.08 283.81C398.853 283.59 405.497 283.59 412.01 283.81C412.423 283.823 412.63 284.033 412.63 284.44L412.7 312.26C412.7 312.355 412.721 312.448 412.761 312.534C412.801 312.62 412.859 312.696 412.931 312.756C413.004 312.817 413.089 312.862 413.18 312.887C413.271 312.911 413.367 312.916 413.46 312.9C414.587 312.707 415.907 312.847 417.42 313.32Z" fill="#0B0E1D"/>
<path d="M776.81 429.95C773.3 444.51 770.75 459.89 767.82 476.31C767.58 477.663 767.313 477.667 767.02 476.32C763.76 461.36 760.85 445.96 758.29 430.12C758.23 429.747 758.39 429.56 758.77 429.56L776.52 429.58C776.565 429.58 776.61 429.591 776.65 429.611C776.691 429.63 776.727 429.659 776.754 429.695C776.782 429.73 776.802 429.772 776.811 429.816C776.821 429.86 776.821 429.906 776.81 429.95Z" fill="#0B0E1D"/>
<path d="M822.13 455.11C824.61 450.197 826.077 445.137 826.53 439.93C826.81 436.73 826.06 434.7 823.11 433.42C821.063 432.533 819.107 432.007 817.24 431.84L816.93 430.11C816.877 429.823 816.997 429.68 817.29 429.68L834.28 429.67C834.393 429.67 834.504 429.693 834.607 429.737C834.711 429.781 834.804 429.846 834.882 429.927C834.959 430.008 835.019 430.105 835.059 430.21C835.098 430.315 835.115 430.428 835.11 430.54C835.05 431.873 834.913 433.16 834.7 434.4C832.49 447.25 830.68 461.47 827.43 474.5C827.07 475.96 827.11 477.14 826.97 478.6C826.857 479.767 826.693 479.773 826.48 478.62L822.13 455.11Z" fill="#0B0E1D"/>
<path d="M814.61 432.1C814.057 433.08 813.77 434.22 813.75 435.52C813.73 436.86 813.62 438.107 813.42 439.26C811.887 448.387 810.307 457.973 808.68 468.02C807.92 472.727 807.4 477.35 807.12 481.89C806.873 485.89 808.55 488.117 812.15 488.57C815.157 488.957 816.96 487.853 817.56 485.26C818.38 481.687 819.313 473.277 820.36 460.03C822.673 471.163 824.25 479.153 825.09 484C825.21 484.653 825.18 485.337 825 486.05C821.573 500.03 817.81 513.723 813.71 527.13C813.53 527.71 813.137 528 812.53 528L782.45 527.99C782.172 527.99 781.901 527.901 781.676 527.735C781.452 527.57 781.285 527.337 781.2 527.07C778.68 519.24 776.16 511.81 774.09 503.53C772.41 496.797 770.773 490.453 769.18 484.5C769.075 484.091 769.058 483.665 769.13 483.25L778.88 430.3C778.94 429.987 779.133 429.827 779.46 429.82L813.79 429.7C814.117 429.7 814.337 429.853 814.45 430.16C814.743 430.94 814.797 431.587 814.61 432.1Z" fill="#0B0E1D"/>
<path d="M321.343 433.128C321.717 433.556 322.229 433.721 322.487 433.496C322.745 433.271 322.651 432.741 322.277 432.312C321.903 431.884 321.391 431.719 321.133 431.944C320.875 432.169 320.969 432.699 321.343 433.128Z" fill="#0B0E1D"/>
<path d="M555.49 475.32C556.71 475.307 557.89 475.307 559.03 475.32C559.59 475.327 559.907 475.61 559.98 476.17L564.53 512.08C564.61 512.733 564.32 513.06 563.66 513.06L504.65 513.33C504.123 513.33 503.743 513.097 503.51 512.63C496.803 499.183 486.16 490.167 471.58 485.58C471.213 485.46 471.047 485.21 471.08 484.83L471.79 476.19C471.81 475.973 471.909 475.772 472.068 475.626C472.228 475.48 472.435 475.399 472.65 475.4C502.563 475.6 530.177 475.573 555.49 475.32Z" fill="#0B0E1D"/>
<path d="M693.82 507.59L735.95 507.58C735.997 507.58 736.042 507.591 736.084 507.612C736.126 507.632 736.162 507.663 736.19 507.7L744.64 519.4C744.674 519.445 744.694 519.499 744.699 519.556C744.704 519.612 744.692 519.669 744.666 519.719C744.64 519.769 744.6 519.811 744.551 519.839C744.502 519.868 744.447 519.882 744.39 519.88L685.4 519.9C685.343 519.902 685.287 519.888 685.239 519.859C685.19 519.831 685.15 519.789 685.124 519.739C685.098 519.689 685.086 519.632 685.091 519.576C685.095 519.519 685.116 519.465 685.15 519.42L693.58 507.71C693.608 507.673 693.644 507.642 693.686 507.622C693.727 507.601 693.773 507.59 693.82 507.59Z" fill="#0B0E1D"/>
<path d="M315.01 666.26L316.3 672.58C314.607 674.853 310.81 679.227 304.91 685.7C289.13 703 274.837 717.367 262.03 728.8C260.923 729.793 258.9 731.133 255.96 732.82L249.44 732.94C250.02 732.633 250.277 732.14 250.21 731.46C254.363 727.853 258.443 724.18 262.45 720.44C280.717 703.387 298.237 685.327 315.01 666.26Z" fill="#0B0E1D"/>
<path d="M415.38 266.57C415.787 266.357 416.193 266.37 416.6 266.61C416.674 266.655 416.739 266.715 416.79 266.785C416.842 266.855 416.879 266.935 416.899 267.019C416.92 267.104 416.923 267.192 416.91 267.278C416.896 267.363 416.865 267.446 416.82 267.52C416.5 268.02 416.05 268.167 415.47 267.96C415.331 267.91 415.21 267.82 415.121 267.702C415.032 267.584 414.98 267.442 414.97 267.294C414.961 267.147 414.994 267 415.067 266.871C415.14 266.742 415.249 266.638 415.38 266.57Z" fill="#C7C892"/>
<path d="M202.6 313.11C204.47 301.42 210.66 277.41 224.99 275.02C225.385 274.954 225.791 275.03 226.134 275.235C226.477 275.441 226.735 275.762 226.86 276.14C227.54 278.16 228.07 280.17 228.45 282.17C230.477 292.797 231.457 304.483 231.39 317.23C231.389 317.405 231.324 317.573 231.209 317.704C231.093 317.834 230.933 317.918 230.76 317.94C221.37 319.25 210.59 318.5 203.01 313.99C202.86 313.901 202.74 313.769 202.667 313.612C202.594 313.455 202.571 313.28 202.6 313.11Z" fill="#C7C892"/>
<path d="M415.13 276.22L413.51 281.1C413.397 281.44 413.16 281.597 412.8 281.57C404.54 281.057 397.12 281.063 390.54 281.59C372.5 283.05 364.17 295.09 364.1 312C363.947 353.44 363.923 399.943 364.03 451.51C364.05 461.343 368.857 468.81 378.45 473.91C368.763 475.103 359.207 474.947 349.78 473.44C349.27 473.36 348.81 473.12 348.32 472.96C347.98 472.853 347.703 472.943 347.49 473.23C347.217 473.597 346.98 473.65 346.78 473.39C347.707 472.13 347.43 470.92 345.95 469.76C346.043 468.72 345.393 467.377 344 465.73C344.367 464.223 344.4 462.667 344.1 461.06C344.04 460.727 343.84 460.56 343.5 460.56L333.78 460.59C333.58 458.33 333.513 456.087 333.58 453.86C333.86 444.54 333.68 435.21 333.63 425.88C333.63 425.173 333.817 424.117 334.19 422.71C334.497 421.543 334.513 420.43 334.24 419.37C335.567 415.59 336.353 413.133 336.6 412C337.333 408.627 336.313 406.307 333.54 405.04C333.6 403.14 333.633 401.293 333.64 399.5C333.8 371.167 333.82 342.833 333.7 314.5C333.62 296.5 342.46 283.2 361.85 281.29C366.177 280.863 370.617 280.873 375.17 281.32C378.91 281.68 378.46 279.84 380.15 277.64C380.99 276.553 382.273 275.99 384 275.95C394.307 275.71 404.683 275.8 415.13 276.22Z" fill="#C7C892"/>
<path d="M151.39 299.1C149.96 290.26 152.57 280.97 160.28 276C160.342 275.961 160.412 275.936 160.485 275.929C160.558 275.921 160.631 275.93 160.699 275.955C160.767 275.981 160.828 276.021 160.877 276.074C160.926 276.127 160.961 276.191 160.98 276.26C164.83 290.22 168.96 304.45 170.91 318.6C170.923 318.682 170.916 318.765 170.892 318.844C170.867 318.923 170.825 318.995 170.768 319.055C170.711 319.115 170.641 319.161 170.563 319.19C170.485 319.218 170.402 319.229 170.32 319.22C168.16 319.027 166.03 318.37 163.93 317.25C156.923 313.497 152.743 307.447 151.39 299.1Z" fill="#C7C892"/>
<path d="M178.25 279.85C180.89 281.657 183.36 284.147 185.66 287.32C191.34 295.16 195.76 303.643 198.92 312.77C199.033 313.083 198.94 313.313 198.64 313.46C190.833 317.34 182.753 319.413 174.4 319.68C174.183 319.688 173.971 319.618 173.802 319.482C173.633 319.346 173.518 319.154 173.48 318.94C172.54 313.54 171.47 307.973 170.27 302.24C169.437 298.24 167.327 290.157 163.94 277.99C164.573 278.123 165.033 277.69 165.32 276.69C165.334 276.639 165.358 276.591 165.39 276.549C165.423 276.507 165.463 276.472 165.509 276.446C165.554 276.42 165.605 276.403 165.656 276.397C165.708 276.391 165.76 276.395 165.81 276.41L178.25 279.85Z" fill="#C7C892"/>
<path d="M149.24 288.54C146.27 303.78 154.36 319.5 170.66 321.66C171 321.7 171.193 321.89 171.24 322.23C172.727 332.323 171.587 342.02 167.82 351.32C166.02 355.773 164.313 360.243 162.7 364.73C157.86 378.15 156.74 392.98 162.45 406.33C164.963 412.21 168.6 417.063 173.36 420.89C173.073 422.43 172.707 423.367 172.26 423.7C168.48 426.587 164.13 428.613 159.21 429.78C158.117 430.04 158.017 430.513 158.91 431.2C159.95 432 160.677 432.99 161.09 434.17C161.223 434.537 161.177 434.88 160.95 435.2C159.43 437.287 159.89 439.117 162.33 440.69C164.777 442.263 166.957 443.973 168.87 445.82C169.11 446.047 169.193 446.323 169.12 446.65C168.927 447.463 168.97 448.13 169.25 448.65C162.09 455.61 157.427 464.14 155.26 474.24C150.94 494.42 156.66 517.45 176.34 527.25C177.267 527.71 177.21 527.94 176.17 527.94L119.42 527.96C118.153 526.707 116.817 525.567 115.41 524.54C113.53 523.16 112.193 522.04 111.4 521.18C98.24 506.89 96.34 485.36 105.06 468.52C112.44 454.26 126.33 445.68 140.4 439.21C140.731 439.058 141.015 438.821 141.222 438.524C141.43 438.226 141.553 437.88 141.58 437.52L142.04 431.47C142.052 431.301 142.099 431.136 142.176 430.986C142.254 430.835 142.361 430.701 142.491 430.592C142.622 430.483 142.773 430.401 142.936 430.351C143.099 430.301 143.27 430.283 143.44 430.3C144.02 430.36 144.603 430.32 145.19 430.18C146.637 429.813 146.647 429.41 145.22 428.97C136.01 426.1 127.89 415.83 124.54 407.47C119.973 396.083 119.47 385.087 123.03 374.48C124.577 369.873 126.693 364.653 129.38 358.82C133.113 350.747 134.313 341.913 132.98 332.32C131.587 322.253 129.117 312.857 125.57 304.13C125.15 303.1 123.93 301.88 123.02 301.29C119.947 299.303 116.963 297.33 114.07 295.37C112.29 294.16 110.75 292.98 109.37 291.23C104.75 285.34 109.86 279.79 115.74 278.59C127.04 276.29 139.47 281.18 148.37 288.03C148.43 288.07 148.44 288.12 148.4 288.18C148.34 288.287 148.343 288.363 148.41 288.41C148.47 288.457 148.54 288.473 148.62 288.46C148.873 288.413 149.08 288.44 149.24 288.54Z" fill="#C7C892"/>
<path d="M196.92 392.56C197.02 392.583 197.109 392.639 197.172 392.719C197.236 392.799 197.27 392.898 197.27 393L196.92 425.53C196.913 425.95 196.7 426.147 196.28 426.12C162.26 424.18 154.97 390.99 165.32 364.37C167.36 359.123 169.31 354.037 171.17 349.11C174.43 340.47 174.65 331.83 173.67 322.51C173.662 322.418 173.672 322.326 173.702 322.239C173.731 322.152 173.779 322.072 173.841 322.004C173.903 321.936 173.978 321.882 174.063 321.845C174.147 321.809 174.238 321.79 174.33 321.79C182.86 321.8 191.69 319.87 198.86 315.93C198.913 315.899 198.973 315.884 199.034 315.884C199.095 315.885 199.155 315.902 199.207 315.934C199.259 315.965 199.302 316.011 199.33 316.065C199.359 316.118 199.373 316.179 199.37 316.24L197.49 367.55C197.483 367.877 197.377 368.167 197.17 368.42C191.983 375.033 191.027 382.287 194.3 390.18C194.84 391.487 195.713 392.28 196.92 392.56Z" fill="#C7C892"/>
<path d="M229.96 320.37L226.56 341.87C224.133 347.27 220.167 351.86 214.66 355.64C214.34 355.867 214.143 355.787 214.07 355.4C211.71 342.58 207.977 329.903 202.87 317.37C202.637 316.797 202.813 316.61 203.4 316.81C206.15 317.76 208.81 319.09 211.62 319.69C217.487 320.95 223.6 321.177 229.96 320.37Z" fill="#C7C892"/>
<path d="M200.37 365.23C200.336 365.26 200.293 365.279 200.248 365.284C200.203 365.29 200.157 365.282 200.117 365.262C200.076 365.242 200.042 365.21 200.02 365.17C199.997 365.131 199.987 365.085 199.99 365.04L201.61 323.22C201.67 321.693 201.947 321.653 202.44 323.1C206.24 334.18 209.49 344.53 211.78 356.57C211.823 356.792 211.796 357.022 211.703 357.228C211.61 357.434 211.455 357.606 211.26 357.72C207.68 359.813 204.05 362.317 200.37 365.23Z" fill="#C7C892"/>
<path d="M229.17 343.01C232.463 352.943 234.527 361.19 235.36 367.75C236.327 375.31 236.57 382.667 236.09 389.82C235.45 399.42 231.65 408.78 223.97 414.73C221.31 416.79 219.26 418.227 217.82 419.04C215.507 420.34 213.02 420.973 210.36 420.94C215.25 414.35 216.97 405.84 217.45 398.02C218.223 385.473 217.28 372.753 214.62 359.86C214.473 359.14 214.713 358.587 215.34 358.2C219.393 355.713 222.85 352.32 225.71 348.02C226.71 346.527 227.863 344.857 229.17 343.01Z" fill="#C7C892"/>
<path d="M200.04 426.17C199.876 426.17 199.718 426.104 199.602 425.986C199.485 425.867 199.42 425.707 199.42 425.54C199.353 407.34 199.6 388.683 200.16 369.57C200.187 368.797 200.513 368.183 201.14 367.73L211.68 360.16C211.739 360.116 211.808 360.088 211.88 360.079C211.953 360.069 212.027 360.078 212.095 360.105C212.163 360.132 212.223 360.176 212.27 360.233C212.316 360.29 212.347 360.358 212.36 360.43C215.32 376.04 216.79 393.4 213.07 409.38C212.24 412.94 210.51 417.03 208.13 419.66C206.497 421.453 204.657 423.293 202.61 425.18C201.903 425.833 201.047 426.163 200.04 426.17Z" fill="#C7C892"/>
<path d="M287.081 364.176C287.032 365.584 287.936 366.758 289.101 366.798C290.266 366.839 291.25 365.731 291.299 364.324C291.348 362.916 290.444 361.742 289.279 361.702C288.114 361.661 287.13 362.769 287.081 364.176Z" fill="#C7C892"/>
<path d="M197.4 389.6C197.398 389.633 197.383 389.663 197.359 389.686C197.334 389.708 197.303 389.72 197.27 389.72H197.23C196.908 389.717 196.592 389.499 196.3 389.078C196.007 388.657 195.745 388.041 195.526 387.267C195.308 386.492 195.139 385.574 195.028 384.564C194.917 383.554 194.867 382.472 194.88 381.38V381.06C194.907 378.857 195.191 376.747 195.669 375.194C196.147 373.642 196.78 372.773 197.43 372.78L197.47 372.79C197.505 372.79 197.538 372.804 197.562 372.828C197.586 372.853 197.6 372.886 197.6 372.92L197.4 389.6Z" fill="#C7C892"/>
<path d="M307.029 386.641C307.79 386.543 308.341 385.944 308.259 385.303C308.177 384.662 307.493 384.222 306.731 384.319C305.97 384.417 305.419 385.016 305.501 385.657C305.583 386.298 306.267 386.738 307.029 386.641Z" fill="#C7C892"/>
<path d="M760.52 424.1L756.27 424.11C755.943 424.11 755.753 424.27 755.7 424.59C755.567 425.53 755.577 426.563 755.73 427.69C758.363 446.53 761.823 465.163 766.11 483.59C766.23 484.097 766.237 484.607 766.13 485.12L757.56 527.68C757.5 527.967 757.323 528.11 757.03 528.11L751.07 528.08C750.743 528.08 750.6 527.92 750.64 527.6C751.147 523.3 750.937 520.907 750.01 520.42C748.76 519.76 747.85 519.5 746.95 518.29C743.837 514.083 740.653 509.917 737.4 505.79C737.235 505.581 737.023 505.413 736.783 505.299C736.542 505.184 736.277 505.127 736.01 505.13L718.59 505.3C718.17 505.307 717.96 505.097 717.96 504.67L718.05 427.7H728.45C728.817 427.7 729 427.517 729 427.15C728.993 414.55 729.303 401.87 729.93 389.11C730.02 387.35 730.54 386.23 732.67 386.34C733.84 386.39 735.03 386.77 735.27 388.05C737.777 401.463 739.683 414.39 740.99 426.83C741.05 427.417 741.373 427.71 741.96 427.71L745.71 427.75C746.31 427.757 746.61 427.46 746.61 426.86C746.623 415.487 746.623 403.713 746.61 391.54C746.603 390.333 746.777 389.17 747.13 388.05C747.233 387.722 747.455 387.446 747.75 387.28C748.723 386.733 749.817 386.613 751.03 386.92C751.397 387.02 751.627 387.253 751.72 387.62L760.52 424.1Z" fill="#C7C892"/>
<path d="M319.34 422.28L311.95 459.63C310.39 457.51 309.417 455.103 309.03 452.41C308.65 449.737 308.32 447.827 308.04 446.68C306.92 442.17 306.5 437.69 307.52 433.11C309.52 424.163 311.337 415.063 312.97 405.81C313.04 405.427 313.23 405.076 313.514 404.808C313.799 404.54 314.161 404.369 314.55 404.32C316.897 404.013 319.243 404.3 321.59 405.18C322.443 405.5 322.767 406.103 322.56 406.99C322.46 407.403 322.23 407.687 321.87 407.84C321.643 407.933 321.493 408.097 321.42 408.33C319.98 412.877 319.287 417.527 319.34 422.28Z" fill="#C7C892"/>
<path d="M286.77 409.46L299.26 458.73L288.58 459.43C288.242 459.453 287.907 459.359 287.629 459.164C287.351 458.97 287.147 458.686 287.05 458.36C282.163 441.647 277.72 425.61 273.72 410.25C273.46 409.263 273.353 408.2 273.4 407.06C273.409 406.871 273.467 406.689 273.569 406.531C273.671 406.373 273.813 406.245 273.98 406.16C277.24 404.47 282.3 404.33 285.69 404.89C286.11 404.963 286.317 405.24 286.31 405.72C286.31 406.08 286.137 406.22 285.79 406.14C285.61 406.093 285.487 406.21 285.42 406.49C285.393 406.59 285.38 406.69 285.38 406.79C285.333 409.21 285.797 410.1 286.77 409.46Z" fill="#C7C892"/>
<path d="M713.2 428.15L713.41 504.71C713.41 504.857 713.352 504.998 713.25 505.103C713.147 505.207 713.007 505.267 712.86 505.27L706.26 505.32C699.86 480.213 695.203 454.67 692.29 428.69C692.223 428.097 692.49 427.803 693.09 427.81L713.2 428.15Z" fill="#C7C892"/>
<path d="M202.35 428.2C202.427 428.2 202.501 428.231 202.555 428.285C202.609 428.339 202.64 428.413 202.64 428.49L202.65 428.79C202.65 428.82 202.644 428.849 202.632 428.877C202.621 428.904 202.604 428.929 202.582 428.949C202.561 428.97 202.535 428.986 202.507 428.996C202.479 429.007 202.45 429.011 202.42 429.01L197.91 428.82C197.83 428.813 197.79 428.77 197.79 428.69L197.81 428.41C197.813 428.343 197.841 428.279 197.89 428.233C197.938 428.186 198.003 428.16 198.07 428.16L202.35 428.2Z" fill="#C7C892"/>
<path d="M254.016 448.088C254.649 447.801 254.973 447.148 254.738 446.63C254.503 446.111 253.798 445.925 253.165 446.212C252.531 446.5 252.208 447.153 252.443 447.671C252.678 448.189 253.382 448.376 254.016 448.088Z" fill="#C7C892"/>
<path d="M222.68 460.51H249.36L249.47 479.01C248.75 479.91 248.383 480.7 248.37 481.38C248.323 484.34 248.373 487.343 248.52 490.39C248.529 490.564 248.5 490.737 248.434 490.898C248.368 491.059 248.268 491.203 248.14 491.32C248.011 491.438 247.859 491.526 247.693 491.577C247.527 491.629 247.352 491.644 247.18 491.62C246.313 491.507 245.987 491.79 246.2 492.47C242.493 492.843 240.23 493.383 239.41 494.09C230.16 502.09 227.85 517.44 234.05 527.45C234.29 527.837 234.183 528.03 233.73 528.03L207.27 528.11C206.143 528.11 206.067 527.833 207.04 527.28C215.46 522.48 221.1 515.307 223.96 505.76C228.613 490.227 228.187 475.143 222.68 460.51Z" fill="#C7C892"/>
<path d="M830.91 471.29L839.97 528.09L836.06 527.97C835.733 527.957 835.54 527.79 835.48 527.47L827.81 486.8C827.67 486.053 827.687 485.31 827.86 484.57L830.91 471.29Z" fill="#C7C892"/>
<path d="M459.78 475.63L469.61 475.56C469.649 475.56 469.688 475.568 469.725 475.584C469.761 475.6 469.793 475.623 469.819 475.652C469.846 475.682 469.866 475.716 469.878 475.754C469.89 475.791 469.894 475.831 469.89 475.87L469.06 484.49C469.04 484.657 468.947 484.717 468.78 484.67C460.94 482.45 452.85 480.927 444.51 480.1L447.98 479.81C448.313 479.783 448.603 479.653 448.85 479.42C450.083 478.247 451.637 477.833 453.51 478.18C456.903 478.813 459.967 478.32 462.7 476.7C463.46 476.247 463.4 475.98 462.52 475.9L459.78 475.63Z" fill="#C7C892"/>
<path d="M771.35 504.03L778.92 527.54C779.033 527.893 778.903 528.07 778.53 528.07L763.26 528.03C765.547 527.603 767.88 527.47 770.26 527.63C771.87 527.73 773.43 526.81 773.19 525.04C772.67 521.193 772.313 517.447 772.12 513.8C772.053 512.473 771.837 511.077 771.47 509.61C771.237 508.683 771.15 507.76 771.21 506.84C771.27 505.9 771.317 504.963 771.35 504.03Z" fill="#C7C892"/>
<path d="M692.61 505.44C689.03 510 685.597 514.48 682.31 518.88C681.717 519.68 681.087 520.12 680.42 520.2C680.086 520.238 679.779 520.401 679.562 520.655C679.344 520.91 679.233 521.237 679.25 521.57L679.52 527.28C679.54 527.693 679.343 527.903 678.93 527.91L667.11 528.13C667.937 526.85 668.34 525.307 668.32 523.5C668.31 522.38 669.31 520.69 670.19 519.68C673.497 515.82 676.49 511.823 679.17 507.69C679.44 507.268 679.804 506.915 680.235 506.66C680.666 506.405 681.15 506.254 681.65 506.22L692.61 505.44Z" fill="#C7C892"/>
<path d="M256.47 550.77L255.58 551.12C255.047 551.333 255.05 551.537 255.59 551.73C255.903 551.843 256.13 552.05 256.27 552.35C256.39 552.603 256.423 552.873 256.37 553.16C254.643 563.28 252.79 572.897 250.81 582.01C249.717 587.057 248.813 592.25 248.1 597.59C248.047 597.989 247.851 598.355 247.549 598.62C247.247 598.885 246.86 599.031 246.46 599.03L157.18 598.89L157.25 551.14C157.25 551.031 157.294 550.927 157.373 550.85C157.452 550.773 157.559 550.73 157.67 550.73L256.47 550.77Z" fill="#C7C892"/>
<path d="M271.17 550.79L314.68 550.68C314.738 550.68 314.796 550.692 314.849 550.715C314.903 550.737 314.951 550.771 314.991 550.813C315.032 550.855 315.063 550.905 315.083 550.959C315.104 551.014 315.113 551.072 315.11 551.13L313.14 601.21L313.06 599.41C313.047 599.103 312.887 598.953 312.58 598.96L272.66 599.11C272.36 599.11 272.07 599.216 271.841 599.408C271.612 599.6 271.46 599.867 271.41 600.16C265.477 633.953 259.84 667.903 254.5 702.01C254.113 704.497 252.947 709.35 251 716.57L238.24 726.65C238.527 721.937 239.253 717.053 240.42 712C243.82 697.26 246.98 681.17 250.7 665.76C256 643.827 260.95 621.863 265.55 599.87C265.67 599.303 265.44 599.013 264.86 599L252.43 598.75L253.67 593.21L253.71 593.67C253.715 593.731 253.74 593.788 253.781 593.833C253.822 593.878 253.878 593.908 253.938 593.917C253.998 593.926 254.06 593.915 254.113 593.884C254.166 593.854 254.207 593.807 254.23 593.75C254.87 592.09 255.3 590.36 255.52 588.56C255.77 586.48 256.89 585.02 256.61 582.84C256.563 582.44 256.617 582.053 256.77 581.68C257.29 580.44 257.497 579.15 257.39 577.81C257.357 577.437 257.433 577.087 257.62 576.76C258.407 575.34 258.75 573.807 258.65 572.16C258.57 570.97 259.35 570.18 259.38 569.05C259.42 567.87 259.66 566.727 260.1 565.62C260.86 563.72 260.2 561.83 261.09 559.87C261.39 559.21 261.493 558.503 261.4 557.75C261.353 557.37 261.393 557 261.52 556.64L262.9 552.92C263.04 552.54 263.31 552.333 263.71 552.3C265.083 552.187 266.513 552.137 268 552.15C269.48 552.17 270.537 551.717 271.17 550.79Z" fill="#C7C892"/>
<path d="M722.56 550.92L722.17 560.62C722.165 560.757 722.107 560.887 722.008 560.982C721.909 561.077 721.777 561.13 721.64 561.13L524.04 561.34L520.23 551.2C520.217 551.165 520.213 551.127 520.218 551.09C520.222 551.053 520.236 551.017 520.258 550.987C520.28 550.956 520.309 550.932 520.342 550.915C520.375 550.898 520.413 550.889 520.45 550.89L722.56 550.92Z" fill="#C7C892"/>
<path d="M730.52 551.1L740.05 551.08L738.82 551.29C738.714 551.308 738.613 551.347 738.523 551.405C738.433 551.463 738.356 551.539 738.296 551.628C738.236 551.717 738.195 551.817 738.175 551.922C738.155 552.027 738.157 552.135 738.18 552.24C742.427 571.44 746.24 587.543 749.62 600.55C757.113 629.363 764.223 657 770.95 683.46C773.01 691.553 774.847 699.587 776.46 707.56C776.491 707.715 776.464 707.876 776.382 708.011C776.301 708.146 776.171 708.246 776.02 708.29L775.74 708.37C775.703 708.381 775.665 708.384 775.627 708.38C775.589 708.375 775.552 708.364 775.518 708.345C775.485 708.326 775.455 708.301 775.432 708.271C775.408 708.241 775.39 708.207 775.38 708.17C772.76 698.47 769.13 688.98 766.09 679.58C761.8 666.31 757.09 652.9 753.09 639.25C750.6 630.78 746.72 621.86 745.61 616.02C741.49 594.47 737.42 573.07 732.32 551.77C732.247 551.457 732.053 551.28 731.74 551.24L730.52 551.1Z" fill="#C7C892"/>
<path d="M537.33 598.94L526.11 566.89C532.17 566.317 540.467 566.033 551 566.04C607.893 566.067 664.81 566.157 721.75 566.31C722.163 566.31 722.37 566.52 722.37 566.94L722.22 598.26C722.22 598.353 722.202 598.446 722.166 598.532C722.13 598.618 722.078 598.696 722.012 598.762C721.946 598.828 721.868 598.88 721.782 598.916C721.696 598.952 721.603 598.97 721.51 598.97L537.33 598.94Z" fill="#C7C892"/>
<path d="M777.11 730.42L766.77 730.29L750.67 649.33C750.664 649.27 750.68 649.21 750.714 649.161C750.749 649.112 750.8 649.077 750.858 649.063C750.916 649.048 750.978 649.055 751.032 649.082C751.085 649.109 751.127 649.155 751.15 649.21L777.11 730.42Z" fill="#C7C892"/>
<path d="M250.46 720.2C250.407 720.433 250.393 720.613 250.42 720.74C250.46 720.92 250.567 721.04 250.74 721.1C251 721.187 251.15 721.367 251.19 721.64C251.663 724.5 250.953 727.43 249.06 730.43C248.985 730.547 248.94 730.68 248.928 730.818C248.916 730.956 248.938 731.094 248.992 731.22C249.046 731.345 249.13 731.454 249.236 731.536C249.342 731.618 249.467 731.671 249.6 731.69C249.687 731.703 249.89 731.627 250.21 731.46C250.277 732.14 250.02 732.633 249.44 732.94L237.45 733.67C238.163 733.283 238.99 733.053 239.93 732.98C240.343 732.953 240.56 732.733 240.58 732.32C240.613 731.773 240.71 731.23 240.87 730.69C241.043 730.077 240.877 729.963 240.37 730.35C240.203 730.477 240.007 730.517 239.78 730.47C239.36 730.383 239.33 730.22 239.69 729.98C242.81 727.887 245.787 725.64 248.62 723.24C248.887 723.013 249.047 722.783 249.1 722.55C249.167 722.25 249.133 721.953 249 721.66L250.46 720.2Z" fill="#C7C892"/>
<path d="M391.05 733.84C390.65 733.96 390.307 734.103 390.02 734.27C389.42 734.617 389.467 734.763 390.16 734.71C390.3 734.697 390.397 734.75 390.45 734.87C390.603 735.203 390.863 735.38 391.23 735.4C397.343 735.76 403.46 735.933 409.58 735.92C416.16 735.9 422.71 736.23 429.28 736.65C429.627 736.677 429.913 736.553 430.14 736.28C430.593 735.72 430.74 734.913 430.58 733.86L430.63 742.86C430.63 742.958 430.591 743.052 430.522 743.122C430.452 743.191 430.358 743.23 430.26 743.23L350.71 743.34C350.517 743.34 350.447 743.247 350.5 743.06L352.71 734.59C352.75 734.437 352.847 734.36 353 734.36L391.05 733.84Z" fill="#C7C892"/>
<path d="M288.8 734.91C288.807 735.103 288.767 735.237 288.68 735.31C288.367 735.583 288.417 735.727 288.83 735.74C300.477 736.153 312.323 736.333 324.37 736.28C331.77 736.247 338.44 736.273 344.38 736.36C344.693 736.36 344.867 736.517 344.9 736.83C345.193 739.563 344.557 741.773 342.99 743.46L236.58 743.09C236.447 743.09 236.377 743.02 236.37 742.88L236.31 737.8C236.31 737.66 236.38 737.587 236.52 737.58L288.8 734.91Z" fill="#C7C892"/>
<path d="M513.84 738.53V742.58C513.84 742.782 513.76 742.975 513.617 743.117C513.475 743.26 513.281 743.34 513.08 743.34L437.59 743.29C437.31 743.29 437.17 743.147 437.17 742.86L437.25 737.73C439.66 738.02 442.11 737.68 444.48 737.69C455.353 737.723 466.24 738.06 477.14 738.7C483 739.04 493.407 739.1 508.36 738.88C509.267 738.867 510.18 738.803 511.1 738.69C511.993 738.583 512.907 738.53 513.84 738.53Z" fill="#C7C892"/>
<path d="M580.53 738.2C584.303 738.333 588.127 738.44 592 738.52C597.007 738.613 602.007 738.717 607 738.83C607.54 738.837 608.063 738.973 608.57 739.24C609.003 739.46 609.463 739.57 609.95 739.57C619.03 739.53 627.273 739.64 634.68 739.9C636.527 739.96 638.39 740.32 640.27 740.98C641.983 741.58 643.687 741.877 645.38 741.87C649.307 741.857 653.23 741.987 657.15 742.26C660.303 742.48 663.613 742.603 667.08 742.63C670.46 742.657 673.84 742.767 677.22 742.96L582.61 743.48C582.38 743.48 582.157 743.403 581.978 743.261C581.798 743.119 581.672 742.922 581.62 742.7L580.53 738.2Z" fill="#C7C892"/>
<path d="M233.14 747.11L245.59 746.98C237.883 784.753 230.26 822.43 222.72 860.01C218.133 882.87 213.33 905.683 208.31 928.45L198.42 928.3C198.38 925.533 198.633 922.76 199.18 919.98C202.847 901.347 206.473 882.7 210.06 864.04C217.58 825.007 225.273 786.03 233.14 747.11Z" fill="#C7C892"/>
<path d="M401.05 747.1C400.437 747.327 399.65 747.38 398.69 747.26C398.17 747.197 397.644 747.305 397.192 747.566C396.741 747.828 396.389 748.23 396.19 748.71C390.79 761.71 385.403 774.897 380.03 788.27C363.19 830.237 346.27 872.217 329.27 914.21C329.257 914.243 328.577 916.063 327.23 919.67C326.05 922.843 324.613 925.76 322.92 928.42L319.07 928.33C318.563 927.11 318.603 925.75 319.19 924.25C322.91 914.663 326.797 904.863 330.85 894.85C350.47 846.37 370.49 797.44 390.27 748.31C390.403 747.983 390.32 747.723 390.02 747.53C389.627 747.283 389.103 747.183 388.45 747.23L401.05 747.1Z" fill="#C7C892"/>
<path d="M527.33 747.12C526.103 748.2 525.51 750.053 525.55 752.68C525.617 756.427 525.65 758.31 525.65 758.33C525.47 761.81 525.32 765.327 525.2 768.88C524.427 791.227 523.597 816.833 522.71 845.7C522.017 868.093 521.54 889.527 521.28 910C521.207 915.46 521.05 921.303 520.81 927.53C520.797 927.877 520.95 928.11 521.27 928.23C521.71 928.397 522.217 928.443 522.79 928.37L517.23 928.43C517.178 928.43 517.126 928.42 517.078 928.399C517.03 928.379 516.987 928.35 516.951 928.312C516.914 928.275 516.886 928.231 516.867 928.182C516.848 928.134 516.839 928.082 516.84 928.03L520.79 747.74C520.792 747.592 520.852 747.451 520.957 747.347C521.061 747.242 521.202 747.183 521.35 747.18L527.33 747.12Z" fill="#C7C892"/>
<path d="M458.13 747.18H464.49L458.43 928.39L454.96 928.35C454.78 927.87 454.577 927.4 454.35 926.94C454.117 926.453 454.007 925.97 454.02 925.49C455.387 866.09 456.757 806.653 458.13 747.18Z" fill="#C7C892"/>
<path d="M603.5 747.29L608.79 747.23L608.53 747.65C608.417 747.837 608.41 748.027 608.51 748.22C608.57 748.333 608.657 748.417 608.77 748.47C608.857 748.51 608.91 748.577 608.93 748.67L656.01 928.37L651.26 928.36L603.5 747.29Z" fill="#C7C892"/>
<path d="M771.23 747.43L784.16 747.48C784.313 750.673 784.66 753.843 785.2 756.99C785.307 757.617 785.283 758.307 785.13 759.06C784.503 762.033 785.167 764.577 787.12 766.69C787.333 766.917 787.473 767.177 787.54 767.47C788.24 770.317 788.897 773.25 789.51 776.27C790.59 781.58 792.31 787.75 793.32 793.53C793.467 794.35 793.483 795.34 793.37 796.5C793.137 798.853 793.577 799.813 794.69 799.38C796.297 806.14 799.59 821.06 804.57 844.14C811.31 875.413 816.83 901.623 821.13 922.77C821.463 924.403 821.727 925.983 821.92 927.51C821.927 927.576 821.92 927.644 821.901 927.707C821.881 927.771 821.848 927.829 821.805 927.879C821.762 927.929 821.709 927.969 821.649 927.997C821.59 928.024 821.525 928.039 821.46 928.04L812.47 928.05C811.59 928.05 811.057 927.62 810.87 926.76L782.09 797.35L775.27 766.55C775.197 765.83 775.23 765.223 775.37 764.73C776.357 763.437 776.063 762.193 774.49 761C774.223 760.8 774.053 760.537 773.98 760.21L771.23 747.43Z" fill="#C7C892"/>
</g>
<defs>
<clipPath id="clip0_17_984">
<rect width="1024" height="1024" fill="white"/>
</clipPath>
</defs>
</svg>
