<svg width="20" height="20" viewBox="0 0 20 20" fill="none" xmlns="http://www.w3.org/2000/svg">
<path d="M11 6V11C11 11.2652 10.8946 11.5196 10.7071 11.7071C10.5196 11.8946 10.2652 12 10 12C9.73478 12 9.48043 11.8946 9.29289 11.7071C9.10535 11.5196 9 11.2652 9 11V6C9 5.73478 9.10535 5.48043 9.29289 5.29289C9.48043 5.10536 9.73478 5 10 5C10.2652 5 10.5196 5.10536 10.7071 5.29289C10.8946 5.48043 11 5.73478 11 6ZM9.29 13.29C9.38344 13.1973 9.49425 13.124 9.61609 13.0742C9.73793 13.0245 9.86839 12.9992 10 13C9.86839 12.9992 9.73793 13.0245 9.61609 13.0742C9.49425 13.124 9.38344 13.1973 9.29 13.29ZM9 14C8.99924 13.8684 9.02446 13.7379 9.07423 13.6161C9.12399 13.4943 9.19732 13.3834 9.29 13.29C9.19732 13.3834 9.12399 13.4943 9.07423 13.6161C9.02446 13.7379 8.99924 13.8684 9 14ZM10 13C9.80222 13 9.60888 13.0586 9.44443 13.1685C9.27998 13.2784 9.1518 13.4346 9.07612 13.6173C9.00043 13.8 8.98063 14.0011 9.01921 14.1951C9.0578 14.3891 9.15304 14.5673 9.29289 14.7071C9.43274 14.847 9.61093 14.9422 9.80491 14.9808C9.99889 15.0194 10.2 14.9996 10.3827 14.9239C10.5654 14.8482 10.7216 14.72 10.8315 14.5556C10.9413 14.3911 11 14.1978 11 14C11 13.7348 10.8946 13.4804 10.7071 13.2929C10.5196 13.1054 10.2652 13 10 13ZM20 10C20 11.9778 19.4135 13.9112 18.3147 15.5557C17.2159 17.2002 15.6541 18.4819 13.8268 19.2388C11.9996 19.9957 9.9889 20.1937 8.04909 19.8079C6.10928 19.422 4.32745 18.4696 2.92893 17.0711C1.5304 15.6725 0.577996 13.8907 0.192144 11.9509C-0.193708 10.0111 0.00432521 8.00043 0.761202 6.17317C1.51808 4.3459 2.7998 2.78412 4.44429 1.6853C6.08879 0.58649 8.02218 0 10 0C11.3132 0 12.6136 0.258658 13.8268 0.761205C15.0401 1.26375 16.1425 2.00035 17.0711 2.92893C17.9996 3.85752 18.7362 4.95991 19.2388 6.17317C19.7413 7.38642 20 8.68678 20 10ZM18 10C18 8.41775 17.5308 6.87103 16.6518 5.55544C15.7727 4.23984 14.5233 3.21447 13.0615 2.60896C11.5997 2.00346 9.99112 1.84504 8.43927 2.15372C6.88743 2.4624 5.46196 3.22433 4.34314 4.34315C3.22432 5.46197 2.4624 6.88743 2.15371 8.43928C1.84503 9.99113 2.00346 11.5997 2.60896 13.0615C3.21446 14.5233 4.23984 15.7727 5.55543 16.6518C6.87103 17.5308 8.41775 18 10 18C12.1217 18 14.1566 17.1571 15.6569 15.6569C17.1571 14.1566 18 12.1217 18 10Z" fill="#000"/>
</svg>
