<svg width="25" height="23" viewBox="0 0 29 25" fill="none" xmlns="http://www.w3.org/2000/svg">
<path d="M13.5348 0.331944C13.8008 0.118104 14.1442 0 14.5 0C14.8558 0 15.1992 0.118104 15.4652 0.331944L28.5475 10.8587C28.821 11.0938 28.9828 11.416 28.9987 11.7571C29.0146 12.0983 28.8834 12.4317 28.6328 12.6869C28.3822 12.9421 28.0319 13.0991 27.6558 13.1248C27.2796 13.1505 26.9072 13.0428 26.6172 12.8245L26.1288 12.4337V22.3683C26.1288 23.0663 25.8225 23.7357 25.2773 24.2292C24.7321 24.7227 23.9926 25 23.2216 25H5.77843C5.0074 25 4.26794 24.7227 3.72274 24.2292C3.17753 23.7357 2.87124 23.0663 2.87124 22.3683V12.4337L2.38283 12.8245C2.09278 13.0428 1.72036 13.1505 1.34424 13.1248C0.968118 13.0991 0.617756 12.9421 0.367166 12.6869C0.116575 12.4317 -0.0146196 12.0983 0.0012958 11.7571C0.0172112 11.416 0.178991 11.0938 0.452458 10.8587L13.5348 0.331944ZM5.77843 10.0915V22.3683H10.1392V15.7891C10.1392 15.4401 10.2924 15.1054 10.565 14.8587C10.8376 14.6119 11.2073 14.4733 11.5928 14.4733H17.4072C17.7927 14.4733 18.1624 14.6119 18.435 14.8587C18.7076 15.1054 18.8608 15.4401 18.8608 15.7891V22.3683H23.2216V10.0928L14.5 3.07547L5.77843 10.0915ZM15.9536 22.3683V17.105H13.0464V22.3683H15.9536Z" fill="#A5A5A5"/>
</svg>
