<svg width="35" height="36" viewBox="0 0 42 42" fill="none" xmlns="http://www.w3.org/2000/svg">
<path d="M21 41.7484C32.571 41.7484 42 32.3759 42 20.8742C42 9.37252 32.571 0 21 0C9.429 0 0 9.37252 0 20.8742C0 32.3759 9.429 41.7484 21 41.7484ZM15.141 19.7679L22.554 12.3993C22.869 12.0862 23.268 11.94 23.667 11.94C24.066 11.94 24.465 12.0862 24.78 12.3993C25.389 13.0046 25.389 14.0066 24.78 14.6119L18.48 20.8742L24.78 27.1365C25.389 27.7418 25.389 28.7438 24.78 29.3491C24.171 29.9545 23.163 29.9545 22.554 29.3491L15.141 21.9805C14.511 21.3752 14.511 20.3732 15.141 19.7679Z" fill="#A6AC6B" fill-opacity="0.99"/>
</svg>
