<svg width="18" height="18" viewBox="0 0 25 25" fill="none" xmlns="http://www.w3.org/2000/svg">
<path d="M10.0061 2.50011C8.0158 2.50011 6.10697 3.29077 4.69959 4.69815C3.2922 6.10554 2.50154 8.01437 2.50154 10.0047C2.50154 11.9951 3.2922 13.9039 4.69959 15.3113C6.10697 16.7187 8.0158 17.5093 10.0061 17.5093C11.9965 17.5093 13.9053 16.7187 15.3127 15.3113C16.7201 13.9039 17.5108 11.9951 17.5108 10.0047C17.5108 8.01437 16.7201 6.10554 15.3127 4.69815C13.9053 3.29077 11.9965 2.50011 10.0061 2.50011ZM6.18083e-08 10.0047C0.000228048 8.41231 0.380506 6.84296 1.10923 5.42708C1.83796 4.0112 2.89408 2.78969 4.18983 1.86407C5.48558 0.938447 6.98354 0.335443 8.5592 0.105172C10.1349 -0.125098 11.7427 0.0240158 13.2492 0.540121C14.7556 1.05623 16.1172 1.92442 17.2206 3.07254C18.324 4.22066 19.1375 5.61556 19.5934 7.1413C20.0493 8.66704 20.1345 10.2796 19.8419 11.8449C19.5493 13.4101 18.8873 14.883 17.911 16.141L24.6489 22.8789C24.8767 23.1148 25.0028 23.4307 25 23.7587C24.9971 24.0866 24.8656 24.4003 24.6337 24.6322C24.4018 24.8641 24.088 24.9957 23.7601 24.9985C23.4322 25.0014 23.1162 24.8753 22.8803 24.6475L16.1424 17.9096C14.6633 19.0579 12.8917 19.7681 11.029 19.9596C9.16627 20.151 7.28721 19.8159 5.6055 18.9923C3.92379 18.1688 2.5069 16.8899 1.51596 15.3011C0.525021 13.7123 -0.000208028 11.8772 6.18083e-08 10.0047Z" fill="#A5A5A5"/>
</svg>
