<svg width="28" height="28" viewBox="0 0 35 28" fill="none" xmlns="http://www.w3.org/2000/svg">
<path d="M0 3.50004C0 2.57177 0.368753 1.68152 1.02514 1.02514C1.68152 0.368753 2.57177 0 3.50004 0H19.2502C20.1785 0 21.0687 0.368753 21.7251 1.02514C22.3815 1.68152 22.7502 2.57177 22.7502 3.50004V7.00007C22.7502 7.46421 22.5659 7.90933 22.2377 8.23752C21.9095 8.56572 21.4644 8.75009 21.0002 8.75009C20.5361 8.75009 20.091 8.56572 19.7628 8.23752C19.4346 7.90933 19.2502 7.46421 19.2502 7.00007V3.50004H3.50004V24.5003H19.2502V21.0002C19.2502 20.5361 19.4346 20.091 19.7628 19.7628C20.091 19.4346 20.5361 19.2502 21.0002 19.2502C21.4644 19.2502 21.9095 19.4346 22.2377 19.7628C22.5659 20.091 22.7502 20.5361 22.7502 21.0002V24.5003C22.7502 25.4285 22.3815 26.3188 21.7251 26.9752C21.0687 27.6315 20.1785 28.0003 19.2502 28.0003H3.50004C2.57177 28.0003 1.68152 27.6315 1.02514 26.9752C0.368753 26.3188 0 25.4285 0 24.5003V3.50004ZM26.763 7.51283C27.0912 7.18475 27.5363 7.00045 28.0003 7.00045C28.4643 7.00045 28.9094 7.18475 29.2376 7.51283L34.4876 12.7629C34.8157 13.0911 35 13.5361 35 14.0001C35 14.4642 34.8157 14.9092 34.4876 15.2374L29.2376 20.4875C28.9075 20.8062 28.4654 20.9826 28.0066 20.9787C27.5477 20.9747 27.1088 20.7906 26.7844 20.4661C26.4599 20.1417 26.2758 19.7028 26.2719 19.2439C26.2679 18.7851 26.4443 18.343 26.763 18.0129L29.0258 15.7502H12.2501C11.786 15.7502 11.3409 15.5658 11.0127 15.2376C10.6845 14.9094 10.5001 14.4643 10.5001 14.0001C10.5001 13.536 10.6845 13.0909 11.0127 12.7627C11.3409 12.4345 11.786 12.2501 12.2501 12.2501H29.0258L26.763 9.98736C26.435 9.65918 26.2507 9.21414 26.2507 8.75009C26.2507 8.28605 26.435 7.84101 26.763 7.51283Z" fill="#A5A5A5"/>
</svg>
