<svg width="23" height="28" viewBox="0 0 27 29" fill="none" xmlns="http://www.w3.org/2000/svg">
<path d="M26.3782 18.1105L24.6231 15.7035C24.2546 15.167 23.9211 14.152 23.9211 13.5575V9.889C23.9211 6.4815 21.499 3.538 18.0063 2.1605C17.0937 0.8265 15.4088 0 13.4782 0C11.5651 0 9.84513 0.8555 8.93247 2.204C5.51 3.6105 3.14059 6.525 3.14059 9.889V13.5575C3.14059 14.152 2.80712 15.167 2.43855 15.689L0.665883 18.1105C-0.0361628 19.082 -0.194123 20.155 0.244656 21.141C0.665884 22.1125 1.6663 22.8665 2.96508 23.229C6.37001 24.186 9.95044 24.65 13.5308 24.65C17.1112 24.65 20.6917 24.186 24.0966 23.2435C25.3252 22.91 26.2729 22.1415 26.7293 21.141C27.1856 20.1405 27.0627 19.0385 26.3782 18.1105Z" fill="#818181" fill-opacity="0.7"/>
<path d="M18.4628 26.1144C17.7257 27.7964 15.7775 28.9999 13.4958 28.9999C12.1093 28.9999 10.7403 28.5359 9.77497 27.7094C9.21333 27.2744 8.7921 26.6944 8.54639 26.0999C8.77455 26.1289 9.00272 26.1434 9.24843 26.1724C9.65211 26.2159 10.0734 26.2594 10.4946 26.2884C11.495 26.3609 12.513 26.4044 13.5309 26.4044C14.5313 26.4044 15.5318 26.3609 16.5146 26.2884C16.8832 26.2594 17.2518 26.2449 17.6028 26.2014C17.8836 26.1724 18.1644 26.1434 18.4628 26.1144Z" fill="#818181" fill-opacity="0.7"/>
</svg>
