<svg width="23" height="28" viewBox="0 0 15 13" fill="none" xmlns="http://www.w3.org/2000/svg">
<path d="M0.69165 1.25C0.69165 1.01794 0.786179 0.795376 0.954441 0.631282C1.1227 0.467187 1.35091 0.375 1.58887 0.375H15.9444C16.1824 0.375 16.4106 0.467187 16.5789 0.631282C16.7471 0.795376 16.8417 1.01794 16.8417 1.25C16.8417 1.48206 16.7471 1.70462 16.5789 1.86872C16.4106 2.03281 16.1824 2.125 15.9444 2.125H1.58887C1.35091 2.125 1.1227 2.03281 0.954441 1.86872C0.786179 1.70462 0.69165 1.48206 0.69165 1.25ZM15.9444 5.625H1.58887C1.35091 5.625 1.1227 5.71719 0.954441 5.88128C0.786179 6.04538 0.69165 6.26794 0.69165 6.5C0.69165 6.73206 0.786179 6.95462 0.954441 7.11872C1.1227 7.28281 1.35091 7.375 1.58887 7.375H15.9444C16.1824 7.375 16.4106 7.28281 16.5789 7.11872C16.7471 6.95462 16.8417 6.73206 16.8417 6.5C16.8417 6.26794 16.7471 6.04538 16.5789 5.88128C16.4106 5.71719 16.1824 5.625 15.9444 5.625ZM15.9444 10.875H1.58887C1.35091 10.875 1.1227 10.9672 0.954441 11.1313C0.786179 11.2954 0.69165 11.5179 0.69165 11.75C0.69165 11.9821 0.786179 12.2046 0.954441 12.3687C1.1227 12.5328 1.35091 12.625 1.58887 12.625H15.9444C16.1824 12.625 16.4106 12.5328 16.5789 12.3687C16.7471 12.2046 16.8417 11.9821 16.8417 11.75C16.8417 11.5179 16.7471 11.2954 16.5789 11.1313C16.4106 10.9672 16.1824 10.875 15.9444 10.875Z" fill="#A5A5A5"/>
</svg>
